<svg xmlns="http://www.w3.org/2000/svg" version="1.1" width="600px" height="600px" xlink="http://www.w3.org/1999/xlink" style="overflow:hidden!important;"><g id="svga-group-wrapper" transform="scale(3 3)"><g id="svga-group-backs-single"><path id="SvgjsPath9573" d="M225 225H-25V-25h250V225z" fill="#14305c" stroke-width="none" opacity="1" stroke="none"></path><path id="SvgjsPath9574" d="M103-37.266L99.131 71.999 96.536-37.598 103-37.266zM73.203-36.265L91.025 71.904 79.65-36.835 73.203-36.265zM66.869-16.598l24.577 89.921L68.869-17.931 66.869-16.598zM26.203-29.931L87.817 74.773 32.243-32.257 26.203-29.931zM23.545-16.454l60.278 91.568L25.536-20.265 23.545-16.454zM-11.865-28.757l57.2 61.532L-6.7-32.658 -11.865-28.757zM-15.464-0.265l94.073 82.174 -89.74-88.174L-15.464-0.265zM-30.131 2.069l85.667 64.667 -85.11-67.506L-30.131 2.069zM-25.19 42.794l99.642 45.712 -96.509-51.375L-25.19 42.794zM-44.131 43.402L56.536 85.069 -44.797 39.735 -44.131 43.402zM-54.775 75.518L53.607 91.994l-109.599-19.45L-54.775 75.518zM-44.102 97.566l109.62 1.232 -109.063-7.68L-44.102 97.566zM-58.131 52.069l89 27.333 -89.667-31L-58.131 52.069zM79.65 236.833l11.375-108.739L73.203 236.263 79.65 236.833zM68.869 217.929l22.577-91.254 -24.577 89.921L68.869 217.929zM30.826 240.293l47.61-91.392 -53.65 89.065L30.826 240.293zM25.536 220.263l58.287-95.379 -60.278 91.568L25.536 220.263zM-11.212 239.563l67.27-86.188 -72.435 82.287L-11.212 239.563zM-11.131 206.263l89.74-88.174 -94.073 82.174L-11.131 206.263zM-29.574 200.769l85.11-67.506 -85.667 64.666L-29.574 200.769zM-22.058 162.867l96.509-51.376 -99.642 45.713L-22.058 162.867zM-44.797 160.263l101.333-45.334 -100.667 41.667L-44.797 160.263zM-55.992 127.454l109.599-19.449L-54.775 124.48 -55.992 127.454zM-58.797 151.597l89.667-31.001 -89 27.333L-58.797 151.597zM120.438-43.631L106.913 64.863l14.599-89.479L120.438-43.631zM141.813-31.87L113.32 73.685l34.767-103.968L141.813-31.87zM149.456-11.494L112.68 75.019 151.219-9.86 149.456-11.494zM187.892-19.824l-71.859 96.851 77.454-93.596L187.892-19.824zM192.61-6.919l-72.688 84.917 74.049-80.838L192.61-6.919zM226.479-19.459l-61.838 61.764 66.318-57.093L226.479-19.459zM226.59 12.723L123.991 85.534l105.924-66.199L226.59 12.723zM243.926 21.075l-94.745 53.14 94.846-50.248L243.926 21.075zM230.489 57.303L127.048 92.708l105.635-29.315L230.489 57.303zM252.527 63.484L145.283 92.157l106.004-25.158L252.527 63.484zM255.805 96.376l-109.623-0.937 112.19 2.214L255.805 96.376zM239.29 109.779l-108.899-9.73 108.426 16.185L239.29 109.779zM241.298 126.083l-67.52-9.087 66.28 12.603L241.298 126.083zM104.827 238.789l-0.426-109.627 -6.031 109.166L104.827 238.789zM114.202 220.376l-9.991-92.682 7.806 93.681L114.202 220.376zM162.61 237.612l-54.587-110.773 48.254 112.112L162.61 237.612zM167.971 224.657l-55.949-97.521L165.4 228.103 167.971 224.657zM198.084 217.32l-79.836-96.065 74.605 101.301L198.084 217.32zM212.936 217.344l-74.315-77.444 73.314 80.159L212.936 217.344zM214.521 176.351l-91.122-60.95 87.131 66.045L214.521 176.351zM233.319 178.757l-92.776-57.118 92.852 60.845L233.319 178.757zM248.926 148.738l-104.393-33.471 105.123 36.601L248.926 148.738zM248.518 172.422l-83.533-41.113 83.608 44.841L248.518 172.422z" fill="#09234d" stroke-width="none" opacity="1" stroke="none"></path></g><g id="svga-group-subwrapper" ><g id="svga-group-hair-back" ><path id="SvgjsPath9586" d="M160.527 108.896c-0.826 32.13-25.267 102.589-58.469 102.589 -33.201 0-60.969-69.5-61.767-102.589 -1.15-47.67 26.917-86.339 60.118-86.339C133.611 22.558 161.753 61.229 160.527 108.896z" fill="#1c150e" stroke-width="none" opacity="1" stroke="none"></path></g><g id="svga-group-humanbody-single"><path id="SvgjsPath9427" d="M190.858 199.866c-6.008-10.158-13.474-11.973-19.628-13.936 -6.323-2.016-19.346-3.178-26.449-4.6 -6.86-1.373-23.153-5.789-23.339-13.488 -0.192-8.066 4.291-40.09 4.291-40.09H74.005c0 0 4.487 32.023 4.294 40.09 -0.184 7.699-16.48 12.115-23.341 13.488 -7.104 1.422-20.125 2.584-26.448 4.6 -6.156 1.963-13.624 3.777-19.632 13.936 -3.644 6.16-6.008 16.133-6.008 27.133h194C196.869 215.999 194.509 206.026 190.858 199.866z" fill="#ecc4b8" stroke-width="none" opacity="1" stroke="none"></path><path id="SvgjsPath9428" d="M121.442 167.843c2.495 10.929 18.165 13.698 26.293 15.325 21.909 4.379 33.772 5.134 42.297 19.539 2.903 4.916 5.459 15.864 5.962 24.153 1.835 0.291 0.531-17.432-5.136-26.994 -9.742-16.472-29.089-15.135-46.077-18.535C137.921 179.958 121.628 175.542 121.442 167.843L121.442 167.843zM78.558 167.843c-0.186 7.699-16.479 12.115-23.339 13.488 -16.988 3.4-36.335 2.063-46.077 18.535 -5.667 9.563-6.971 27.285-5.136 26.994 0.503-8.289 3.059-19.237 5.962-24.153 8.524-14.405 20.388-15.16 42.297-19.539C60.393 181.541 76.063 178.771 78.558 167.843L78.558 167.843z" fill="#fbe4dd" stroke-width="none" opacity="1" stroke="none"></path><path id="SvgjsPath9429" d="M51.206 189.513c0 0 28.641 0.299 33.473 1.885 2.314 0.758 8.372 5.633 8.372 5.633s-6.556-3.17-8.658-3.758C79.51 191.909 51.206 189.513 51.206 189.513zM99.795 199.999c2.053-0.041 7.887-3.799 7.887-3.799s-5.574 2.059-7.342 2.16c-1.491 0.086-6.366-1.238-6.366-1.238S98.112 200.032 99.795 199.999zM117.008 192.757c6.75-1.818 29.786-3.23 29.786-3.23s-23.791-0.516-30.51 1.725c-2.252 0.752-7.562 5.16-7.562 5.16S114.786 193.354 117.008 192.757z" fill="#dda696" stroke-width="none" opacity="1" stroke="none"></path><path id="SvgjsPath9430" d="M190.858 199.866c-9.741-16.471-29.122-15.142-46.077-18.535 -6.86-1.373-23.153-5.789-23.339-13.488 -0.192-8.066 4.291-40.09 4.291-40.09H74.005c0 0 4.487 32.023 4.294 40.09 -0.184 7.699-16.48 12.115-23.341 13.488 -7.104 1.422-20.125 2.584-26.448 4.6 -6.156 1.963-13.624 3.777-19.632 13.936 -3.644 6.16-6.008 16.133-6.008 27.133h194C196.869 215.999 194.509 206.026 190.858 199.866z" fill="none" stroke="#be725b" stroke-width="1.5" opacity="1"></path></g><g id="svga-group-chinshadow-single"><path id="SvgjsPath9733" d="M100.002 171.27c11.208 0 16.588-3.813 20.938-7.778 0.582-8.897 2.669-24.918 3.646-32.155 -14.784-1.753-34.708-1.742-49.43 0.032 0.971 7.183 3.024 22.934 3.628 31.864C83.185 167.29 88.551 171.27 100.002 171.27z" fill="url(#SvgjsLinearGradient9734)" opacity="1"></path></g><g id="svga-group-clothes-single" ><path id="SvgjsPath9719" d="M30.001 232.556c2.241-18.245 0.078-43.233-0.092-47.774 1.455-3.036 4.17-3.09 7.037-1.8 0.922-1.402 2.811-2.107 5.343-1.056v-0.15c1.067-0.882 1.788-2.667 4.068-1.426 1.595-1.728 3.824-1.542 5.95-0.554h0.071l0.076-0.058c0.684-1.977 2.147-2.091 4.035-1.15v-0.162c0.622-1.629 2.972-1.361 4.711-0.952 12.235 9.88 29.726 21.169 42.436 28.4 0.077-0.057 18.103-13.333 18.103-13.429 1.525-0.984 11.141-7.709 18.003-13.162 1.783-0.63 4.413-0.996 6.045-0.132 1-0.253 1.905-0.696 3.902 1.301l0.049 0.098c1.931-0.992 5.176-1.134 6.063 1.528 1-0.173 3.564-1.396 4.444 0.437l0.142 0.097c1.796-0.519 3.157-0.086 3.735 0.5l0.054-0.06c1.837-0.689 4.266-0.898 5.134 0.906 0.349 0.77 0.219 1.181 0.18 2.072 -4.185 26.167-3.409 37.476-1.301 46.729C145.421 233.437 31.001 232.556 30.001 232.556z" fill="#ef5d25" stroke-width="none" opacity="1" stroke="none"></path><path id="SvgjsPath9720" d="M147.809 184.721c-1.866-2.231-3.948-1.846-4.735-1.369 -0.92-2.239-5.886-1.676-7.239-0.997 1.35-1.022 2.674-2.045 3.908-3.025 1.783-0.63 4.413-0.996 6.045-0.132 1-0.253 1.905-0.696 3.902 1.301l0.049 0.098c1.931-0.992 5.176-1.134 6.063 1.528 1-0.173 3.564-1.396 4.444 0.437l0.142 0.097c1.796-0.519 3.157-0.086 3.735 0.5l0.054-0.06c1.837-0.689 4.266-0.898 5.134 0.906 0.349 0.77 0.219 1.181 0.18 2.072 -0.081 1.594-0.201 2.068-0.261 3.546 -0.736-1.415-4.748-2.231-5.492-1.172 -0.625-1.487-3.636-1.367-4.637-0.771 -1.363-1.56-2.625-1.92-4.781-1.184C153.085 184.317 150.813 183.79 147.809 184.721zM37.85 187.905c0.559-2.065 4.329-2.205 6.192-2.293 0.222-0.29 1.76-2.22 4.603-1.372 1.635-2.172 5.477-1.409 6.157-1.299 0.359-0.053 1.34-1.833 4.544-0.923 1.073-1.914 4.254-1.537 5.117-1.384 -0.784-0.612-2.516-2.558-3.263-3.161 -1.739-0.409-4.089-0.677-4.711 0.952v0.162c-1.888-0.94-3.351-0.826-4.035 1.15l-0.076 0.058h-0.071c-2.126-0.988-4.355-1.174-5.95 0.554 -2.28-1.241-3.001 0.544-4.068 1.426v0.15c-2.532-1.052-4.421-0.347-5.343 1.056 -2.867-1.29-5.582-1.236-7.037 1.8 0.028 0.741 0.061 2.708 0.078 4.421C32.901 186.848 36.077 187.322 37.85 187.905z" fill="#fe7541" stroke-width="none" opacity="1" stroke="none"></path><path id="SvgjsPath9721" d="M36.864 183.316c0.907 5.089 4.544 15.515 6.532 20.684C41.042 199.828 36.056 190.003 36.864 183.316 37.239 183.412 36.478 183.164 36.864 183.316zM42.081 182.099C43.768 189.9 47.522 199.561 59 212c-7.562-11.301-14.7-22.954-16.631-29.953C41.59 181.772 42.717 182.067 42.081 182.099zM60.829 201.982c-5.661-6.409-10.564-13.554-14.875-21.828C47.293 184.422 53.033 196.439 60.829 201.982zM60.829 201.982c0.711 0.685 1.432 1.36 2.171 2.018C62.255 203.338 61.546 202.658 60.829 201.982zM93.003 201.242c-9.773-6.18-24.836-17.555-32.916-24.079C63.499 182.655 80.449 196.903 93.003 201.242zM146.209 179.346c-8.199 12.52-18.991 19.974-30.811 28.156 16.005-7.792 24.545-15.85 30.554-28.205C145.479 179.051 146.566 179.333 146.209 179.346zM149.737 180.55l-0.049-0.098c-0.067-0.067-0.129-0.121-0.193-0.184 -4.209 10.353-11.793 19.05-19.876 28.134C139.203 200.562 145.786 192.152 149.737 180.55 148.956 180.625 150.366 180.227 149.737 180.55zM155.801 182.078c-0.038-0.115-0.093-0.211-0.141-0.316 -5.021 13.434-13.518 25.679-20.841 37.578C146.282 208.985 154.089 192.22 155.801 182.078 155.036 182.212 156.238 182.003 155.801 182.078zM160.387 182.611l-0.142-0.097c-0.164-0.343 0.261 0.156 0 0 -3.356 8.513-5.705 16.162-10.709 23.138C156.456 198.356 159.564 190.497 160.387 182.611 159.972 182.629 160.873 182.471 160.387 182.611zM164.122 183.111c-0.182 0.056 0.227-0.124 0.054-0.06L164.122 183.111c-0.32-0.325 0.567 0.094-0.175-0.001 -1.693 11.853-3.762 22.942-7.411 33.89C161.633 205.609 166.119 195.337 164.122 183.111zM140.204 179.196c-0.92 0.099 0.294-0.181-0.463 0.087 -6.862 5.453-16.478 12.178-18.003 13.162 0 0.052-6.032 6.635-10.884 10.22C124.619 193.569 132.183 189.37 140.204 179.196zM56.124 178.753c-0.943-0.664 8.542 14.193 27.968 22.305C72.525 194.913 62.603 187.144 56.124 178.753zM52.454 179.738l-0.076 0.058h-0.071c-1.379 0.36 11.743 19.392 22.617 27.106C66.155 198.831 52.454 179.738 52.454 179.738z" fill="#e0470c" stroke-width="none" opacity="1" stroke="none"></path><path id="SvgjsPath9722" d="M169.659 184.745c-0.479-2.571-3.071-2.677-5.51-1.79 -0.011-0.01-0.021 0-0.03 0.011 -0.521-0.531-1.963-0.97-3.76-0.45 -0.813-1.589-2.798-1.15-4.49-0.55 -0.855-2.565-4.369-2.609-6.08-1.555 -0.01-0.02-0.02-0.029-0.03-0.029 -1.962-1.964-2.96-1.581-3.96-1.337 -1.657-0.863-4.365-0.483-6.12 0.16 -5.478 4.403-12.335 9.208-18.04 13.24 0 0.021-8.18 6.05-18.01 13.31 -14.833-8.559-30.813-19.031-42.407-28.379 -1.858-0.413-4.176-0.703-4.823 1.029 0 0-0.01 0.01-0.01 0.021 -1.85-0.927-3.354-0.672-4.03 1.279 -0.01 0-0.01 0-0.01 0 -2.16-1.003-4.326-1.191-6.01 0.521 -0.706-0.388-1.449-0.553-2.19-0.23 -0.964 0.422-1.96 1.622-1.96 1.78 -2.406-1.004-4.412-0.232-5.28 1.08 -2.931-1.329-5.996-1.086-7.1 1.93 0.039 1.009 2.635 24.365 0.08 47.87 0 0 138.4 0.2 138.41 0.2C166.202 227.698 166.187 211.336 169.659 184.745zM30.619 232.365c4.04-16.406 0.239-36.055-0.57-46.6 1.057-2.96 4.225-3.26 6.62-2.32 0.648 4.702 1.932 9.223 4.52 14.28 -0.645-1.521-3.93-13.802-3.93-14.23 1.482-1.62 3.466-1.859 5.11-1.149 2.45 8.3 9.74 20.04 11.8 22.189 -1.262-1.442-11.239-21.45-11.62-22.45 1.039-1.396 2.211-2.01 3.79-1.31 4.081 8.162 9.302 14.953 10.64 16.31 0 0-10.229-16.459-10.23-16.46 1.268-1.227 3.667-0.994 5.45-0.399 0.01 0 0.02 0 0.02 0 25.958 33.4 6.071 5.747 0.39-0.24 0.01-0.04 0.03-0.09 0.05-0.12 1.03-2.18 2.77-1.11 3.95-0.36 5.05 7.28 18.47 16.591 19.69 16.99 -0.77-0.25-13.74-10.62-19.23-17.24 0.096-1 0.355-1.91 3.17-1.619 13.22 12.06 29.62 22.33 42.11 29.069 -12.8 9.45-27.84 20.59-31.25 23.25 1-0.574 50.413-33.261 69.74-50.79 2.095-0.292 3.832-0.058 4.74 0.28 0.01 0.01 0.03 0.01 0.04 0.021 -7.25 10.88-26.72 26.119-30.26 27.76 5.574-2.279 24.845-15.87 30.85-27.88 0.021 0 0.04-0.011 0.05 0 1.029-0.15 2.551 0.856 3.25 1.556 -0.01 0.01-0.02 0.03-0.029 0.05 -3.025 6.143-13.229 20.622-18.07 25.024 7.983-7.262 14.594-15.247 18.55-25.234 2.247-0.725 4.396-0.448 5.601 1.534 -2.163 5.533-0.775 4.988-10.051 19.35 -8.819 13.65-5.71 11.521-12.899 20.511 16.166-20.195 20.67-31.158 23.13-39.521 0-0.01 0.01-0.03 0.01-0.05 1.907-0.574 3.346-0.975 4.15 0.479 0 0 0.01 0 0 0.011 -2.65 7.569-6.2 15.14-7.2 17.229 6.371-9.852 5.551-9.614 7.479-17.33 1.772-0.517 3.196-0.165 3.74 0.29 -1.047 8.581-3.293 18.87-5.319 26.9 0.51-2 5.739-10.38 5.55-26.71 0.01-0.01 0.01-0.01 0-0.021 2.058-0.403 4.226-0.563 5.13 1.41 -2.068 16.94-6.141 27.786-1.41 47.641C128.171 231.516 79.125 231.362 30.619 232.365z" fill="#c13600" stroke-width="none" opacity="1" stroke="none"></path></g><g id="svga-group-head" ><g id="svga-group-ears-left" ><path id="SvgjsPath9714" d="M47.218 82.634c-0.967-2.31-8.082-5.576-11.21-5.06 -3.538 0.583-4.838 4.047-4.369 6.612 1.103 6.025 3.996 8.563 5.296 13.268 1.096 3.97 3.433 6.253 4.588 7.938 1.42 2.07 2.73 6.818 3.023 7.512 0.463 1.096 2.103 3.757 5.002 3.619 3.333-0.16 7.545-6.211 7.614-7.557C57.544 101.679 49.733 88.647 47.218 82.634z" fill="#ecc4b8" stroke="#be725b" stroke-width="1.5" opacity="1"></path><path id="SvgjsPath9715" d="M47.953 107.204c0 0 0.429-0.995-0.094-1.879 -0.672-1.134-2.423-3.219-2.821-4.467 -0.325-1.021-0.16-3.2-0.213-4.266 -0.094-1.886-1.492-3.177-1.927-4.26 -2.914-7.238-6.792-11.723-9-12.656 -1.633 3.705-0.339 6.416 1.94 12.116 -1.375-7.748-0.054-10.17-0.054-10.17S39.803 84.842 41.786 92c0.359 1.292-1.111 3.988-0.83 5.299 0.352 1.646 4.184 4.83 5.257 6.163C47.049 104.5 47.953 107.204 47.953 107.204z" fill="#be725b" stroke-width="none" opacity="1"></path></g><g id="svga-group-ears-right" ><path id="SvgjsPath9716" d="M152.52 82.634c0.967-2.31 8.082-5.576 11.211-5.06 3.539 0.583 4.838 4.047 4.369 6.612 -1.104 6.025-3.996 8.563-5.297 13.268 -1.096 3.97-3.434 6.253-4.588 7.938 -1.42 2.07-2.73 6.818-3.023 7.512 -0.463 1.096-2.104 3.757-5.002 3.619 -3.332-0.16-7.545-6.211-7.613-7.557C142.193 101.679 150.006 88.647 152.52 82.634z" fill="#ecc4b8" stroke="#be725b" stroke-width="1.5" opacity="1"></path><path id="SvgjsPath9717" d="M151.785 107.204c0 0-0.43-0.995 0.094-1.879 0.672-1.134 2.424-3.219 2.82-4.467 0.324-1.021 0.16-3.2 0.215-4.266 0.094-1.886 1.49-3.177 1.926-4.26 2.914-7.238 6.793-11.723 9-12.656 1.633 3.705 0.338 6.416-1.939 12.116 1.375-7.748 0.053-10.17 0.053-10.17s-4.018 3.219-6.002 10.376c-0.357 1.292 1.111 3.988 0.83 5.299 -0.352 1.646-4.184 4.83-5.256 6.163C152.689 104.5 151.785 107.204 151.785 107.204z" fill="#be725b" stroke-width="none" opacity="1"></path></g><g id="svga-group-faceshape-wrap" ><g id="svga-group-faceshape-single" ><path id="SvgjsPath9730" d="M100.002 0.867C66.384 0.919 39.082 28.09 39.134 61.564c0.008 5.316 0.704 10.471 2.002 15.382h0.001C41.15 77 52.68 114.915 55.158 127.369c1.382 6.945 9.796 13.203 17.265 18.313 6.967 4.767 10.529 13.588 27.58 13.588s20.613-8.821 27.58-13.588c7.468-5.109 15.883-11.367 17.265-18.313 2.479-12.454 14.009-50.37 14.02-50.423h0.002c1.298-4.911 1.994-10.066 2.002-15.382C160.923 28.09 133.62 0.919 100.002 0.867z" fill="#ecc4b8" stroke-width="none" opacity="1"></path><path id="SvgjsPath9731" d="M146.772 22.738c7.478 10.183 11.917 22.87 11.898 36.626 -0.009 5.316-0.679 10.471-1.93 15.382h-0.002c-0.011 0.053-11.124 37.969-13.512 50.423 -1.335 6.945-9.471 13.203-16.668 18.313 -6.718 4.767-10.121 13.588-26.557 13.588 -16.434 0-19.842-8.821-26.557-13.588 -7.197-5.109-15.335-11.367-16.665-18.313 -2.391-12.454-13.504-50.37-13.515-50.423h0c-1.252-4.911-1.922-10.066-1.931-15.382 -0.021-13.752 4.416-26.435 11.889-36.617 -8.812 10.525-14.112 24.056-14.089 38.817 0.008 5.316 0.704 10.471 2.002 15.382h0.001C41.15 77 52.68 114.915 55.158 127.369c1.382 6.945 9.796 13.203 17.265 18.313 6.967 4.767 10.529 13.588 27.58 13.588s20.613-8.821 27.58-13.588c7.468-5.109 15.883-11.367 17.265-18.313 2.479-12.454 14.009-50.37 14.02-50.423h0.002c1.298-4.911 1.994-10.066 2.002-15.382C160.894 46.799 155.589 33.264 146.772 22.738z" fill="#e4b5a7" stroke-width="none" opacity="1"></path><path id="SvgjsPath9732" d="M100.002 0.867C66.384 0.919 39.082 28.09 39.134 61.564c0.008 5.316 0.704 10.471 2.002 15.382h0.001C41.15 77 52.68 114.915 55.158 127.369c1.382 6.945 9.796 13.203 17.265 18.313 6.967 4.767 10.529 13.588 27.58 13.588s20.613-8.821 27.58-13.588c7.468-5.109 15.883-11.367 17.265-18.313 2.479-12.454 14.009-50.37 14.02-50.423h0.002c1.298-4.911 1.994-10.066 2.002-15.382C160.923 28.09 133.62 0.919 100.002 0.867z" fill="none" stroke="#be725b" stroke-width="1.5" opacity="1"></path></g></g><g id="svga-group-mouth-single" ><path id="SvgjsPath9706" d="M99.825 142.068c-3.24 0-4.753-2.802-4.753-2.802s4.797 0.781 9.279-0.064C104.352 139.202 102.675 142.068 99.825 142.068z" fill="url(#SvgjsLinearGradient9707)" opacity="1"></path><path id="SvgjsPath9710" d="M95.211 139.349c-0.132-0.039-0.23-0.149-0.208-0.285 0.021-0.137 0.151-0.224 0.286-0.209 3.612 0.857 5.963 0.661 8.766-0.043 0.145-0.035 0.27 0.062 0.297 0.195s-0.063 0.256-0.193 0.296C101.098 140.207 98.142 140.241 95.211 139.349zM85.447 132.958c0.313-0.144 0.582-0.086 1.073-0.115 1.419-0.249 3.128-0.323 4.54-0.611 1.348-0.274 2.774-0.662 4.158-0.597 1.488 0.071 2.879 0.669 4.353 0.829 1.401 0.151 2.708-0.229 4.053-0.557 1.542-0.376 3.01-0.287 4.56 0.006 1.938 0.363 3.774 0.857 5.689 1.038 0.582 0.055 0.365 0.413 0.032 0.454 -1.713 0.205-3.431-0.068-5.194-0.249 -1.425-0.146-2.868-0.329-4.274 0.021 -1.518 0.379-3.437 0.822-4.605 0.808 -1.3-0.017-2.521-0.538-3.784-0.807 -1.551-0.327-3.091-0.02-4.647 0.143 -1.938 0.201-3.672 0.34-5.579 0.047C85.312 133.29 85.306 133.023 85.447 132.958z" fill="#be725b" stroke-width="none" opacity="1" stroke="none"></path></g><g id="svga-group-eyes-left" ><g id="svga-group-eyesback-left"><path id="SvgjsPath9610" d="M86.66 84.231c0.748 1.472 1.181 3.05 1.181 4.654 0 3.108-1.716 5.337-3.133 6.88 -6.936 6.296-17.723 5.964-23.191-1.044 -0.984-1.617-1.528-3.528-1.518-5.667C65.019 76.267 78.859 72.676 86.66 84.231z" fill="url(#SvgjsRadialGradient9611)" opacity="1"></path></g><g id="svga-group-eyesiriswrapper-left" transform="translate(0 1)"><g id="svga-group-eyesiriscontrol-left" ><g id="svga-group-eyesiris-left" ><path id="SvgjsPath9668" d="M72.886 86.517l-6.655-1.519C66.084 85.643 66 86.311 66 86.999c0 0.689 0.085 1.357 0.231 2.001l8.768-2.001L72.886 86.517z" fill="#ea2e2e" stroke-width="none" opacity="1"></path><path id="SvgjsPath9669" d="M67.969 92.608c0.838 1.049 1.907 1.902 3.129 2.492l3.9-8.099L67.969 92.608z" fill="#f09330" stroke-width="none" opacity="1"></path><path id="SvgjsPath9670" d="M75.001 95.999c1.399 0 2.719-0.329 3.899-0.898l-3.9-8.1L75.001 95.999z" fill="#64398e" stroke-width="none" opacity="1"></path><path id="SvgjsPath9671" d="M75 87l7.032 5.607c0.83-1.039 1.432-2.265 1.736-3.606L75 87z" fill="#393b97" stroke-width="none" opacity="1"></path><path id="SvgjsPath9672" d="M75 86.999l2.738-0.625 6.03-1.376c-0.305-1.341-0.906-2.567-1.736-3.606L75 86.999z" fill="#00aa4f" stroke-width="none" opacity="1"></path><path id="SvgjsPath9673" d="M78.9 78.897c-1.182-0.57-2.501-0.898-3.9-0.898v8.998L78.9 78.897z" fill="#fae636" stroke-width="none" opacity="1"></path><path id="SvgjsPath9674" d="M71.098 78.898c-1.222 0.59-2.291 1.442-3.13 2.492l7.03 5.607L71.098 78.898z" fill="#9c2d91" stroke-width="none" opacity="1"></path><path id="SvgjsPath9675" d="M75 86.999L83.769 89C83.915 88.356 84 87.688 84 86.999s-0.085-1.357-0.231-2.001l-6.03 1.376L75 86.999z" fill="#ea2e2e" stroke-width="none" opacity="1"></path><path id="SvgjsPath9676" d="M75 86.999L75 86.999 75.001 87l3.9 8.1c1.223-0.59 2.293-1.443 3.131-2.493L75 86.999 75 86.999z" fill="#9b328d" stroke-width="none" opacity="1"></path><path id="SvgjsPath9677" d="M75 87L75 87 75 87 75 87 75 87 75 87 75 87l-3.9 8.1c1.181 0.57 2.501 0.899 3.9 0.899h0.001L75 87 75 87z" fill="#fde92b" stroke-width="none" opacity="1"></path><path id="SvgjsPath9678" d="M74.999 87L74.999 87 74.999 87 74.999 87 74.999 87 74.999 87 74.999 87 74.999 87 74.999 87 74.999 87 74.999 87l-8.768 2.001c0.305 1.341 0.907 2.567 1.737 3.607L74.999 87 74.999 87z" fill="#00aa4f" stroke-width="none" opacity="1"></path><path id="SvgjsPath9679" d="M75 86.998L75 86.998 75 86.998 75 86.998 75 86.998 75 86.998 75 86.998v-8.999c-1.4 0-2.72 0.329-3.901 0.899L75 86.998 75 86.998z" fill="#65378f" stroke-width="none" opacity="1"></path><path id="SvgjsPath9680" d="M75 86.999L75 86.999 75 86.999l7.032-5.608c-0.838-1.05-1.908-1.903-3.131-2.493l-3.9 8.1L75 86.999z" fill="#ec9236" stroke-width="none" opacity="1"></path><path id="SvgjsPath9681" d="M74.999 86.999L74.999 86.999l-7.031-5.608c-0.83 1.04-1.432 2.266-1.736 3.606l6.654 1.519L74.999 86.999z" fill="#393b97" stroke-width="none" opacity="1"></path><path id="SvgjsPath9682" d="M75 77.999c4.971 0 9 4.029 9 9s-4.029 9-9 9 -9-4.029-9-9S70.029 77.999 75 77.999z" fill="#000000" stroke-width="none" opacity="0.3"></path><path id="SvgjsPath9683" d="M78.5 86.999c0 1.933-1.566 3.5-3.5 3.5s-3.5-1.567-3.5-3.5 1.566-3.5 3.5-3.5S78.5 85.066 78.5 86.999z" fill="#000000" stroke-width="none" opacity="1"></path><path id="SvgjsPath9684" d="M71.653 93.108c-0.47 0.469-1.396 0.304-2.069-0.369 -0.674-0.673-0.84-1.601-0.369-2.07 0.469-0.47 1.395-0.304 2.068 0.369C71.956 91.712 72.122 92.639 71.653 93.108z" fill="#ffffff" stroke-width="none" opacity="0.7"></path><path id="SvgjsPath9685" d="M81.809 85.326c-0.702 0.703-2.403 0.142-3.8-1.254 -1.396-1.396-1.957-3.098-1.256-3.8 0.703-0.703 2.405-0.142 3.8 1.254C81.949 82.922 82.512 84.624 81.809 85.326z" fill="#ffffff" stroke-width="none" opacity="0.9"></path></g></g></g><g id="svga-group-eyesfront-left"><path id="SvgjsPath9635" d="M55 89c0 13.808 8.507 24.999 19 24.999S93 102.808 93 89c0-13.809-8.507-25.001-19-25.001S55 75.191 55 89zM61.517 94.721c-0.984-1.617-1.528-3.528-1.518-5.667 5.02-12.787 18.86-16.378 26.661-4.822 0.748 1.472 1.181 3.05 1.181 4.654 0 3.108-1.716 5.337-3.133 6.88C77.772 102.061 66.985 101.729 61.517 94.721z" fill="#ecc4b8" stroke-width="none" opacity="1" stroke="none"></path><path id="SvgjsPath9636" d="M57.063 86.713c0.814 9.341 9.499 16.142 19.41 15.198 9.908-0.95 17.284-9.286 16.465-18.625 -0.814-9.342-9.5-16.145-19.412-15.199C63.615 69.038 56.243 77.374 57.063 86.713zM59.999 89.054c5.02-12.787 18.86-16.378 26.661-4.822 0.748 1.472 1.181 3.05 1.181 4.654 0 3.108-1.716 5.337-3.133 6.88 -6.936 6.296-17.723 5.964-23.191-1.044C60.532 93.104 59.988 91.193 59.999 89.054z" fill="url(#SvgjsRadialGradient9637)" opacity="1"></path><path id="SvgjsPath9641" d="M81.835 79.36c1.751 1.137 3.391 2.746 4.825 4.871 0.748 1.472 1.181 3.05 1.181 4.654 0 3.108-1.716 5.337-3.133 6.88 -6.936 6.296-17.723 5.964-23.191-1.044 -0.984-1.617-1.528-3.528-1.518-5.667 2.306-5.874 6.475-9.8 11.063-11.216 0.492-0.123 0.994-0.221 1.506-0.293C75.914 77.071 79.118 77.794 81.835 79.36z" fill="url(#SvgjsRadialGradient9642)" opacity="1"></path><path id="SvgjsPath9645" d="M85.831 76.642c-5.97-3.487-13.357-4.669-21.869-0.887C70.286 72.031 79.389 71.736 85.831 76.642z" fill="#be725b" stroke-width="none" opacity="1" stroke="none"></path><path id="SvgjsPath9646" d="M61.42 94.437c5.438 6.916 16.313 7.27 23.288 1.123C76.492 104.249 62.78 99.934 61.42 94.437zM89.378 80.015c-6.384-8.038-22.106-6.856-30.795-0.861 2.103-0.601 3.804-1.189 6.62-2.33 -5.615 2.601-5.615 4.669-10.263 9.476l2.246-1.852 -1.182 3.369c1.184-1.713 1.863-2.423 2.638-3.015 -0.296 1.064-0.473 1.714-0.709 3.015 1.58-2.138 2.498-3.246 3.724-4.197 -1.403 1.989-1.822 3.855-2.01 6.325 4.965-13.89 20.687-17.496 28.312-3.487 -0.464-2.242-1.42-3.989-2.482-5.556 1.747 0.8 3.175 2.443 4.492 4.965 -1.063-4.314-1.714-5.438-5.379-8.275L89.378 80.015z" fill="#2c1630" stroke-width="none" opacity="1" stroke="none"></path></g></g><g id="svga-group-eyes-right" ><g id="svga-group-eyesback-right"><path id="SvgjsPath9618" d="M113.34 84.231c-0.748 1.472-1.181 3.05-1.181 4.654 0 3.108 1.716 5.337 3.133 6.88 6.936 6.296 17.723 5.964 23.191-1.044 0.984-1.617 1.528-3.528 1.518-5.667C134.981 76.267 121.141 72.676 113.34 84.231z" fill="url(#SvgjsRadialGradient9619)" opacity="1"></path></g><g id="svga-group-eyesiriswrapper-right" transform="translate(0 1)"><g id="svga-group-eyesiriscontrol-right" ><g id="svga-group-eyesiris-right" ><path id="SvgjsPath9686" d="M122.886 86.517l-6.655-1.519c-0.146 0.645-0.23 1.313-0.23 2.001 0 0.689 0.085 1.357 0.231 2.001l8.768-2.001L122.886 86.517z" fill="#ea2e2e" stroke-width="none" opacity="1"></path><path id="SvgjsPath9687" d="M117.969 92.608c0.838 1.049 1.907 1.902 3.129 2.492l3.9-8.099L117.969 92.608z" fill="#f09330" stroke-width="none" opacity="1"></path><path id="SvgjsPath9688" d="M125.001 95.999c1.399 0 2.719-0.329 3.899-0.898l-3.9-8.1L125.001 95.999z" fill="#64398e" stroke-width="none" opacity="1"></path><path id="SvgjsPath9689" d="M125 87l7.032 5.607c0.83-1.039 1.432-2.265 1.736-3.606L125 87z" fill="#393b97" stroke-width="none" opacity="1"></path><path id="SvgjsPath9690" d="M125 86.999l2.738-0.625 6.03-1.376c-0.305-1.341-0.906-2.567-1.736-3.606L125 86.999z" fill="#00aa4f" stroke-width="none" opacity="1"></path><path id="SvgjsPath9691" d="M128.9 78.897c-1.182-0.57-2.501-0.898-3.9-0.898v8.998L128.9 78.897z" fill="#fae636" stroke-width="none" opacity="1"></path><path id="SvgjsPath9692" d="M121.098 78.898c-1.222 0.59-2.291 1.442-3.13 2.492l7.03 5.607L121.098 78.898z" fill="#9c2d91" stroke-width="none" opacity="1"></path><path id="SvgjsPath9693" d="M125 86.999L133.769 89c0.146-0.645 0.231-1.313 0.231-2.001s-0.085-1.357-0.231-2.001l-6.03 1.376L125 86.999z" fill="#ea2e2e" stroke-width="none" opacity="1"></path><path id="SvgjsPath9694" d="M125 86.999L125 86.999 125.001 87l3.9 8.1c1.223-0.59 2.293-1.443 3.131-2.493L125 86.999 125 86.999z" fill="#9b328d" stroke-width="none" opacity="1"></path><path id="SvgjsPath9695" d="M125 87L125 87 125 87 125 87 125 87 125 87 125 87l-3.9 8.1c1.181 0.57 2.501 0.899 3.9 0.899h0.001L125 87 125 87z" fill="#fde92b" stroke-width="none" opacity="1"></path><path id="SvgjsPath9696" d="M124.999 87L124.999 87 124.999 87 124.999 87 124.999 87 124.999 87 124.999 87 124.999 87 124.999 87 124.999 87 124.999 87l-8.768 2.001c0.305 1.341 0.907 2.567 1.737 3.607L124.999 87 124.999 87z" fill="#00aa4f" stroke-width="none" opacity="1"></path><path id="SvgjsPath9697" d="M125 86.998L125 86.998 125 86.998 125 86.998 125 86.998 125 86.998 125 86.998v-8.999c-1.4 0-2.72 0.329-3.901 0.899L125 86.998 125 86.998z" fill="#65378f" stroke-width="none" opacity="1"></path><path id="SvgjsPath9698" d="M125 86.999L125 86.999 125 86.999l7.032-5.608c-0.838-1.05-1.908-1.903-3.131-2.493l-3.9 8.1L125 86.999z" fill="#ec9236" stroke-width="none" opacity="1"></path><path id="SvgjsPath9699" d="M124.999 86.999L124.999 86.999l-7.031-5.608c-0.83 1.04-1.432 2.266-1.736 3.606l6.654 1.519L124.999 86.999z" fill="#393b97" stroke-width="none" opacity="1"></path><path id="SvgjsPath9700" d="M125 77.999c4.971 0 9 4.029 9 9s-4.029 9-9 9 -9-4.029-9-9S120.029 77.999 125 77.999z" fill="#000000" stroke-width="none" opacity="0.3"></path><path id="SvgjsPath9701" d="M128.5 86.999c0 1.933-1.566 3.5-3.5 3.5s-3.5-1.567-3.5-3.5 1.566-3.5 3.5-3.5S128.5 85.066 128.5 86.999z" fill="#000000" stroke-width="none" opacity="1"></path><path id="SvgjsPath9702" d="M121.653 93.108c-0.47 0.469-1.396 0.304-2.069-0.369 -0.674-0.673-0.84-1.601-0.369-2.07 0.469-0.47 1.395-0.304 2.068 0.369C121.956 91.712 122.122 92.639 121.653 93.108z" fill="#ffffff" stroke-width="none" opacity="0.7"></path><path id="SvgjsPath9703" d="M131.809 85.326c-0.702 0.703-2.403 0.142-3.8-1.254 -1.396-1.396-1.957-3.098-1.256-3.8 0.703-0.703 2.405-0.142 3.8 1.254C131.949 82.922 132.512 84.624 131.809 85.326z" fill="#ffffff" stroke-width="none" opacity="0.9"></path></g></g></g><g id="svga-group-eyesfront-right"><path id="SvgjsPath9656" d="M126 63.999c-10.493 0-19 11.192-19 25.001 0 13.808 8.507 24.999 19 24.999S145 102.808 145 89C145 75.191 136.493 63.999 126 63.999zM115.292 95.765c-1.417-1.542-3.133-3.771-3.133-6.88 0-1.604 0.433-3.182 1.181-4.654 7.801-11.556 21.642-7.964 26.661 4.822 0.011 2.139-0.533 4.05-1.518 5.667C133.015 101.729 122.228 102.061 115.292 95.765z" fill="#ecc4b8" stroke-width="none" opacity="1" stroke="none"></path><path id="SvgjsPath9657" d="M126.475 68.087c-9.912-0.946-18.598 5.857-19.412 15.199 -0.819 9.339 6.557 17.676 16.465 18.625 9.911 0.944 18.596-5.857 19.41-15.198C143.757 77.374 136.385 69.038 126.475 68.087zM138.483 94.721c-5.469 7.008-16.256 7.34-23.191 1.044 -1.417-1.542-3.133-3.771-3.133-6.88 0-1.604 0.433-3.182 1.181-4.654 7.801-11.556 21.642-7.964 26.661 4.822C140.012 91.193 139.468 93.104 138.483 94.721z" fill="url(#SvgjsRadialGradient9658)" opacity="1"></path><path id="SvgjsPath9662" d="M118.165 79.36c-1.751 1.137-3.391 2.746-4.825 4.871 -0.748 1.472-1.181 3.05-1.181 4.654 0 3.108 1.716 5.337 3.133 6.88 6.936 6.296 17.723 5.964 23.191-1.044 0.984-1.617 1.528-3.528 1.518-5.667 -2.306-5.874-6.475-9.8-11.063-11.216 -0.492-0.123-0.994-0.221-1.506-0.293C124.086 77.071 120.882 77.794 118.165 79.36z" fill="url(#SvgjsRadialGradient9663)" opacity="1"></path><path id="SvgjsPath9666" d="M114.169 76.642c5.97-3.487 13.357-4.669 21.869-0.887C129.714 72.031 120.611 71.736 114.169 76.642z" fill="#be725b" stroke-width="none" opacity="1" stroke="none"></path><path id="SvgjsPath9667" d="M115.292 95.56c6.975 6.147 17.85 5.792 23.288-1.123C137.22 99.934 123.508 104.249 115.292 95.56zM115.41 77.592c-3.665 2.837-4.315 3.96-5.379 8.275 1.317-2.522 2.745-4.165 4.492-4.965 -1.063 1.567-2.019 3.314-2.482 5.556 7.625-14.008 23.347-10.403 28.312 3.487 -0.188-2.47-0.606-4.335-2.01-6.325 1.226 0.951 2.144 2.059 3.724 4.197 -0.236-1.3-0.413-1.951-0.709-3.015 0.774 0.591 1.454 1.302 2.638 3.015l-1.182-3.369 2.246 1.852c-4.647-4.807-4.647-6.875-10.263-9.476 2.816 1.141 4.518 1.729 6.62 2.33 -8.688-5.995-24.411-7.177-30.795 0.861L115.41 77.592z" fill="#2c1630" stroke-width="none" opacity="1" stroke="none"></path></g></g><g id="svga-group-facehighlight-single" ><path id="SvgjsPath9419" d="M140.204 113.007c0.035 22.275-17.995 40.365-40.273 40.396 -22.274 0.036-40.361-17.993-40.396-40.272C59.501 90.857 77.53 72.77 99.808 72.735 122.083 72.701 140.171 90.73 140.204 113.007z" fill="url(#SvgjsRadialGradient9420)" opacity="1"></path><path id="SvgjsPath9423" d="M135,55.999c0,19.329-15.671,35-35,35c-19.329,0-35-15.671-35-35s15.671-35,35-35C119.329,20.999,135,36.67,135,55.999z" fill="url(#SvgjsRadialGradient9424)" opacity="1"></path></g><g id="svga-group-eyebrows-left" ><path id="SvgjsPath9704" d="M57.672 67.988c7.019 3.546 13.071 4.443 29.64 6.435 0.542 0.086 0.929 0.187 1.277 0.191 1.666-0.032 3.083-1.561 2.854-2.926C90.66 66.485 64.682 68.92 57.672 67.988z" fill="#3b3128" stroke-width="none" opacity="1" stroke="none"></path></g><g id="svga-group-eyebrows-right" ><path id="SvgjsPath9705" d="M142.328 67.988c-10.868 5.491-21.39 4.561-29.64 6.435 -1 0.159-1.385 0.356-2.354-0.054 -2.145-0.933-2.398-3.339-0.594-4.002C117.75 66.365 132.818 69.252 142.328 67.988z" fill="#3b3128" stroke-width="none" opacity="1" stroke="none"></path></g><g id="svga-group-nose-single" ><path id="SvgjsPath9711" d="M108.922 115.926c0.172-0.464 0.276-0.95 0.358-1.437 0.03-0.18-0.207-0.842-0.228-0.632 -0.092 0.854-0.554 2.051-1.445 2.313 -1.022 0.299-1.61-0.05-1.703-1.063 -0.094-1.02 0.269-2.375-0.099-3.323 -0.238-0.613-0.773-1.111-1.321-1.456 0.413 1.849 0.743 4.265-1.02 5.589 0.151 0.18 0.289 0.266 0.422 0.302 -0.139 0.023-0.278 0.053-0.422 0.118 -0.697 0.317-3.238 0.92-3.978 0.596 -0.175-0.077-0.561-0.139-1.047-0.186 -0.326-0.286-0.924-1.031-1.203-1.204 -1.098-0.682-1.671-1.876-1.739-3.148 -0.147-2.679 1.239-5.664 4.39-6.829 -3.231-0.91-4.574 4.413-6.69 5.6 -1.267 0.711-2.476 1.342-2.453 2.929 0.007 0.525 0.07 1.286 0.307 1.925 -0.38-0.536-0.631-1.021-0.667-0.594 -0.309 3.608 4.084 2.615 5.457 2.864 1.134 0.205 3.081 0.493 4.027 0.51 1.027 0.018 2.582-0.342 3.596-0.51 0.982-0.165 2.696 0.033 3.957-0.535 0.744-0.336 1.812-0.556 1.812-2.005l-0.363 0.296C108.887 116.005 108.907 115.967 108.922 115.926z" fill="#dda696" stroke-width="none" opacity="1" stroke="none"></path><path id="SvgjsPath9712" d="M90.631 113.653c0.136-0.436 0.335-0.872 0.66-1.201 -0.57 0.992-0.649 2.412-0.137 3.444 0.629 1.269 1.752 1 2.828 0.511s1.976-0.851 3.094-0.478c0.87 0.29 1.569 0.722 2.526 0.72 1.023-0.002 1.786-0.428 2.736-0.724 1.155-0.345 2.129-0.147 3.214 0.342 1.021 0.461 2.191 1.044 2.981-0.106 0.698-1.04 0.623-2.648 0.015-3.709 1.364 1.398 1.034 5.385-1.576 4.882 -0.358-0.073-0.991-0.512-1.311-0.425 -0.577 0.157-1.305 0.006-1.889-0.05 -1.061-0.103-1.982-0.099-2.991 0.158 -0.387 0.09-0.784 0.143-1.182 0.139 -0.474-0.005-0.954-0.241-1.404-0.214 -1.265 0.077-2.516-0.194-3.785-0.112 -1.081 0.069-1.945 1.023-3.018 0.159C90.445 116.193 90.3 114.78 90.631 113.653 90.7 113.431 90.5 114.099 90.631 113.653zM101.079 105.797c0.503 0.105 0.96 0.334 1.384 0.62 -1.257-2.003-4.454-1.277-5.726 0.313C98.038 106.036 99.59 105.465 101.079 105.797 101.32 105.848 100.598 105.689 101.079 105.797z" fill="#be725b" stroke-width="none" opacity="1" stroke="none"></path><path id="SvgjsPath9713" d="M91.934 113.093c-1.776 0.928 1.459 5.222 0.898 1.789C92.598 113.45 93.403 112.469 91.934 113.093 91.338 113.348 92.263 112.921 91.934 113.093z" fill="#fbe4dd" stroke-width="none" opacity="1" stroke="none"></path></g><g id="svga-group-hair-front" ><path id="SvgjsPath9588" d="M146.93 34.899H51.19l2.047 63.665c0.413-1.002 6.167-11.347 6.883-9.885 27.017-13.333 35.79-30.203 41.162-43.761 -8.006 33.653-27.315 38.394-27.315 38.394 4.23-0.47 16.372-1.724 24.386-10.048 1.049-1.109 9.917-7.806 17.639-28.686 1.598 17.179 9.102 35.856 21.778 43.817 -4.244-8.364-9.812-29.919-10.834-45.113 7.041 34.369 14.163 52.434 20.596 64.606 2.186 4.135 6.498 11.445 5.991 11.344C155.064 127.09 146.93 34.899 146.93 34.899z" fill="#3b3128" stroke-width="none" opacity="0.1" stroke="none"></path><path id="SvgjsPath9589" d="M123.977 2.768c-3.083-1.172-5.286-2.017-8.009-2.746 -0.046-1-52.547-15.95-79.211 46.22C30 65.827 26.418 96.013 32.644 115.821c1.439 4.387 5.438 10.615 9.24 31.491 1.83 10.049 3.275 17.985 14.18 29.005 2.863 2.896 10.198 8.648 11.516 13.763 4.04-22.237-3.639-28.484-10.942-34.448 -5.008-4.09-9.886-5.026 3.084-1.95 0 0 2.742-0.172 8.082-3.547 -8.452 1.78-14.496-1.088-18.395-7.845 -5.153-8.931-5.126-22.432 0.063-31.404 5.211 2.94 4.943 17.158 5.213 18.975 2.336-7.38-1.068-29.004-1.447-31.296 -0.086-1.031 1.344-4.568 1.344-4.568 0.413-1.002 4.823-9.035 5.539-7.572 27.017-13.333 35.79-30.203 41.162-43.761 -8.006 33.653-26.338 40.13-26.338 40.13 4.23-0.47 15.395-3.46 23.408-11.784 1.049-1.109 10.575-11.543 18.297-32.423 1.598 17.179 9.354 36.563 19.454 48.129 -4.244-8.364-8.146-30.494-9.168-45.688 7.041 34.369 15.773 50.895 22.206 63.066 2.186 4.135 4.633 11.112 4.126 11.011 1.542 7.857-1.689 25.994-16.881 30.317 2.979 0.559 5.525 0.628 7.732 0.33 -16.469 16.26-7.259 25.821-4.188 43.015 0.856-3.048 0.825-6.172 5.466-12.909 8.701-12.646 1.984-12.887 12.664-33.732 11.454-22.361 10.121-31.09 11.148-37.028C169.358 104.3 175.752 22.291 123.977 2.768z" fill="#3b3128" stroke-width="none" opacity="1" stroke="none"></path><path id="SvgjsPath9590" d="M67.764 188.989c0.423-2.594 0.691-4.943 0.835-7.097C68.471 184.053 68.198 186.411 67.764 188.989zM74 74c12.458-18.076 20-31 24-50 -9.526 21.91-26.401 39.19-40.852 57.299 -0.179-4.145 0.471-27.813 19.151-56.07C53.909 45.714 44.072 74.808 50 92.329c-4.381-9.265-7.631-27.423-4.534-39.992C32.93 82.071 50.324 95.5 55.201 114.308c-1.344-18.182-3.149-14.727-0.619-20.983 0.353-0.856 2.804-5.552 2.941-4.476 1.148-1.746 2.267-3.1 2.597-2.425 27.017-13.333 35.79-30.203 41.162-43.761 -8.006 33.653-26.338 40.13-26.338 40.13 12.432-1.38 32.048-22.872 29.337-54.052C99.279 46.741 86.458 62.405 74 74zM167.643 69.768C168.346 85.58 166.535 100.791 164 116c-2-14-5.646-30.432-12.166-48.964 5.535 25.6 4.855 34.796 5.16 44.698 -13.146-28.627-26.344-53.284-31.411-82.828C124.631 39.739 127.384 55.924 129 68c-4.369-9.761-9.298-21.428-11.084-39.259 0 3.435-0.399 5.222-1.558 9.477 1.731 17.014 9.773 37.078 19.745 48.497 -4.244-8.364-8.146-30.494-9.168-45.688 7.041 34.369 15.773 50.895 22.206 63.066 1.876 3.549 3.938 9.179 4.167 10.643 0.038 0.242 0.031 0.383-0.041 0.368 0.158 0.808 0.264 1.729 0.313 2.728 1.77 4.593 2.528 7.402 1.474 10.785 -1.525 4.895-9.049 15.63-18.668 16.805 8.743 2.063 14.341-2.79 18.97-8.827 -6.923 15.946-21.127 8.797-15.486 51.65 0.701-2.468 1.708-6.844 5.527-12.388 8.701-12.646 1.984-12.887 12.664-33.732 11.454-22.361 10.121-31.09 11.148-37.028C169.274 104.75 170.52 89.027 167.643 69.768zM44.483 143.565c2.989 1.909 6.538 10.618 16.535 9.841C41.105 148.271 42 120.18 42 103c-1.471 4.902-2.685 10.05-3.438 15.315 -11.3-30.764-4.969-64.11 9.831-92.716 -4.203 5.701-8.144 12.5-11.637 20.643 -16.692 48.389-0.499 78.419 0.992 83.356 6.717 22.247 2.683 30.923 18.315 46.719 2.863 2.896 10.198 8.648 11.516 13.763C71.369 164.985 48.613 158.099 44.483 143.565zM142.95 25.75c15.545 14.046 21.195 45.833 21.328 69.442C164.39 100.162 164.413 46.131 142.95 25.75zM154.875 82.765c3.342 20.038-2.521-42.627-24.576-58.441C143.508 35.305 152.316 67.792 154.875 82.765zM70.88 22.753c5.942-4.945-2.793 2-5.802 4.808C54.54 37.09 50.033 46.996 47.94 57.751 51.505 42.729 59.444 32.739 70.88 22.753zM84.705 24.485c2.822-2.594-13.942 8.265-22.912 41.27C68.529 45.157 77.302 31.847 84.705 24.485z" fill="#2c2219" stroke-width="none" opacity="1" stroke="none"></path><path id="SvgjsPath9591" d="M151.671 107.902c17.19 26.816 3.447 35.355 1.861 40.974C155.307 142.587 164.622 133.223 151.671 107.902zM163.42 128.026c0.103-1 3.263-9.188 0.12-24.545 -1.706-8.337-4.72-16.315-6.759-24.558C160.708 97.38 165.319 109.35 163.42 128.026zM40.778 139.904c0.025-1.461-5.489-18.724 2.449-40.017C31.997 123.286 40.828 137.053 40.778 139.904zM47.054 108.148c-0.2-0.831-0.822-1.722-1.174-2.497 -13.39-29.399-4.231-52.055 7.184-80.645C37.802 57.778 30.55 77.146 47.054 108.148zM76.707 21.78c0.036-0.038 3.867-3.963 3.917-3.95 -0.095-0.025-0.761 0.712-0.836 0.781C58.372 38.149 45.057 58.889 48.989 87.389 46.38 61.056 58.712 40.895 76.707 21.78zM99.998 17.774c-3.237 8.17-26.894 43.475-42.375 62.038C83.633 50.897 99.614 20.587 99.998 17.774zM82.755 80.445c-0.234 0.139-2.196 1.563-2.301 1.506 0.045 0.024 1.552-0.942 1.671-1.005 26.81-14.112 29.966-31.518 36.614-59.983C111.34 47.604 106.258 66.473 82.755 80.445zM155.396 106.15c-4.141-9.261-29.368-64.249-29.976-80.447C125.997 52.586 154.947 105.149 155.396 106.15zM148.657 74.301c0.361 1.587 0.849 3.182 1.121 4.785 -3.42-20.115-5.357-34.698-17.969-50.635C140.228 39.304 143.225 50.447 148.657 74.301zM136.445 21.347c0 0.068-0.079 0.248-0.18 0.171 16.048 12.281 24.425 58.902 24.777 59.902 -1.188-3.375 0.299-28.648-19.299-53.957 -1.58-2.04-3.319-4.493-5.468-5.976 0.061 0.017 0.187-0.063 0.143-0.136 0.066 0.106 0.143 0.201 0.221 0.3C136.731 21.704 136.445 21.53 136.445 21.347z" fill="#4a423a" stroke-width="none" opacity="1" stroke="none"></path><path id="SvgjsPath9592" d="M152.811 150.46c-5.664 16.369-6.497 17.491-6.497 17.491C145.881 168.951 149.452 157.542 152.811 150.46zM145.609 171.244c-0.081 0.287-0.612 2.203-0.539 1.967 1.925-5.472 3.814-6.661 5.754-14.988C148.631 165.023 148.427 163.099 145.609 171.244zM146.069 171.593c-3.171 4.709-3.991 7.679-3.865 7.369 0.093-0.278 0.782-1.668 1.515-2.844 1.649-2.668 3.643-4.701 5.109-9.896C148.427 167.289 147.835 169.096 146.069 171.593zM50.233 166.038c3.835 4.714-0.635 0.469-6.922-14.783C45.74 159.453 47.645 162.625 50.233 166.038zM55.452 171.15c-1.002-0.743-7.178-6.813-9.562-11.396C49.341 167.897 56.454 171.917 55.452 171.15zM52.553 170.327c10.604 9.982-2.789-2.537-3.953-4.89C48.6 165.438 48.617 166.515 52.553 170.327z" fill="#3b3128" stroke-width="none" opacity="1" stroke="none"></path><path id="SvgjsPath9593" d="M167.879 61.476c-12.103-57.797-52.05-61.709-49.288-60.534C82.706-11.776 39.498 11.482 30.849 62.735c-2.427 14.398-3.457 40.922 0.152 51.061 2.023 5.684 3.274 8.689 5.778 15.28 7.917 21.966-0.744 33.347 24.319 52.629 3.111 2.404 5.166 5.576 6.57 9.28 0.011-0.021 0.206-1.185 0.21-1.21 3.034-17.218 1.952-26.859-14.556-37.602 4.582 2.664 10.785 1.913 14.707-2.328 -18.17 5.154-26.956-19.264-18.035-37.71 3.31 7.742 4.615 15.037 4.415 19.26 3.667-11.231 1.363-15.783-0.26-36.23 1.382-3.195 3.084-5.784 5.23-8.52 18.811-9.406 32.957-18.133 42.583-45.857 -2.319 7.76-3.984 15.355-10.583 25.527 -8.651 13.359-12.577 13.816-17.96 16.7 4.453 0 10.501-1.322 18.886-6.369 -1.375 1.17-2.601 2.299-5.326 4.209 13.693-8.82 23.971-21.423 29.379-42.638 -3.583 16.868-5.419 32.085-22.899 41.488 17.491-8.862 20.781-21.575 23.227-41.07 1.759 30.597 16.143 46.195 21.084 49.76 -6.279-10.305-9.001-34.624-11.224-50.274 2.413 14.985 1.465 10.331 5.243 24.954 6.901 26.356 15.578 41.213 20.585 51.722 2.062 14.443-4.134 27.799-17.385 30.438 3.135 1.249 6.225 1.409 8.729 0.8 -18.508 18.508-7.2 24.044-3.8 43.63 1.291-8.023 5.813-11.861 9.25-18.229 3.456-6.434 2.206-13.346 6.01-21.3C167.924 123.713 178.348 111.793 167.879 61.476zM136.719 145.355c10.184-1.965 18.639-15.794 17.193-27.181 3.127 7.31 3.785 12.573-0.413 18.921C149.909 143.246 143.775 147.014 136.719 145.355zM155.356 136.595L155.356 136.595c-0.008-0.008-0.009-0.01-0.027-0.01C155.316 136.585 155.341 136.58 155.356 136.595zM168.709 105.035c-2.086 29.331-15.352 38.543-17.63 54 -2.551 17.787-8.397 14.561-11.22 28.42 -3.092-17.286-11.779-25.501 4.99-41.729 7.597-2.349 15.125-11.563 12.619-23.141 -3.939-18.205-19.696-28.375-30.75-85.2 0.001 0.021 0.004 0.041 0.005 0.062 -0.188-0.892-0.424-1.969-0.574-2.721 -0.041-0.039-1.392-8.322 0.028 1.145 0.448 15.911 4.518 40.049 9.187 49.243 -14.321-18.218-17.941-38.157-18.659-46.634 0.132-1.054 0.262-2.123 0.391-3.217v0.001c0.594-4.784 1.755-12.568-0.516 1.36 -7.278 20.704-16.344 31.664-18.591 34.042 -7.751 8.047-19.589 11.732-22.89 12.03 19.078-8.456 25.617-31.208 28.85-51.12 -0.116 0.562-1.372 6.57-1.26 6.01 -5.817 15.457-13.401 33.887-42.791 48.39 21.149-26.064 32.342-46.549 37.38-60.3 -10.229 24.39-39.564 59.988-42.96 68.23 -1.051-33.877 10.756-57.804 22.45-68.31 -12.185 9.517-27.02 37.211-24.03 73.01 1.093 6.624 3.499 23.741 2.033 30.36 0.267-4.023-0.573-9.699-1.343-12.41v-0.011c-3.027-10.95-10.455-19.118-11.85-31.479 -1.26-11.15-0.79-22.64 4.16-32.88 -3.67 6.9-5.469 14.376-5.76 22.17 -0.845 22.599 5.915 24.877 9.065 36.278 -9.468 16.356-1.527 45.11 17.855 39.802 -11.657 9.495-21.668-7.561-23.435-10.817 -2.728-6.707-3.268-14.404-3.604-21.543 -0.12 51.119 33.988 27.358 27.697 71.093 -0.804-3.887-10.145-12.2-11.137-13.202 -15.067-15.233-11.885-24.441-17-41.98 -2.092-9.778-4.664-13.319-6.303-18.315 -6.389-20.335-2.216-50.915 4.113-69.265 12.133-28.275 31.378-46.868 62-47.87 7.224-0.239 22.339 2.489 13.6 1.26 4.341 0.897 6.861 1.884 10.97 3.44 50.765 19.143 45.277 99.834 44.92 101.77C168.719 105.005 168.709 105.015 168.709 105.035z" fill="#0d0905" stroke-width="none" opacity="1" stroke="none"></path></g><g id="svga-group-glasses-single" ><path id="SvgjsPath9551" d="M100,18.13L100,18.13L100,18.13L100,18.13z" fill="#26120b" stroke-width="none" opacity="1"></path></g></g></g><rect id="SvgjsRect9404" width="200" height="15" x="0" y="185" fill="#ecf0f1" opacity="0.5" style="display:none;"></rect><text id="SvgjsText9405" font-family="&quot;Roboto&quot;, &quot;Helvetica Neue&quot;, Helvetica, Arial, sans-serif" style="font-size:0.84em;font-family:&quot;Roboto&quot;, &quot;Helvetica Neue&quot;, Helvetica, Arial, sans-serif;text-anchor:middle;font-weight:400;display:none;" font-size="0.84em" text-anchor="middle" font-weight="400" fill="#000000" x="100" y="185"><tspan id="SvgjsTspan9406" dy="1.2em" x="100" style="font-size:0.84em;font-family:&quot;Roboto&quot;, &quot;Helvetica Neue&quot;, Helvetica, Arial, sans-serif;text-anchor:middle;font-weight:400;">creartuavatar.com</tspan></text></g><defs id="SvgjsDefs9372"><radialGradient id="SvgjsRadialGradient9420" cx="100" cy="113" r="40" gradientUnits="userSpaceOnUse" class="svga-on-canvas-facehighlight-gradient-single-0"><stop id="SvgjsStop9421" stop-opacity="0.5" stop-color="#fbe4dd" offset="0" ></stop><stop id="SvgjsStop9422" stop-opacity="0" stop-color="#ecc4b8" offset="0.9" ></stop></radialGradient><radialGradient id="SvgjsRadialGradient9424" cx="100" cy="57" r="36" gradientUnits="userSpaceOnUse" class="svga-on-canvas-facehighlight-gradient-single-1"><stop id="SvgjsStop9425" stop-opacity="0.5" stop-color="#fbe4dd" offset="0" ></stop><stop id="SvgjsStop9426" stop-opacity="0" stop-color="#ecc4b8" offset="0.9" ></stop></radialGradient><radialGradient id="SvgjsRadialGradient9505" cx="-558.588" cy="-490.918" r="84.646" gradientTransform="matrix(0.096 -0.0248 0.0245 0.0961 140.5478 120.3577)" gradientUnits="userSpaceOnUse" class="svga-on-canvas-eyesiris-gradient-left-1"><stop id="SvgjsStop9506" stop-opacity="0.8" stop-color="#ffffff" offset="0" ></stop><stop id="SvgjsStop9507" stop-opacity="0" stop-color="#ffffff" offset="1" ></stop></radialGradient><radialGradient id="SvgjsRadialGradient9509" cx="-565.337" cy="-492.691" r="84.644" gradientTransform="matrix(0.0991 8.856325e-004 -0.0011 0.0991 130.3774 136.3533)" gradientUnits="userSpaceOnUse" class="svga-on-canvas-eyesiris-gradient-left-2"><stop id="SvgjsStop9510" stop-opacity="0.8" stop-color="#ffffff" offset="0" ></stop><stop id="SvgjsStop9511" stop-opacity="0" stop-color="#ffffff" offset="1" ></stop></radialGradient><linearGradient id="SvgjsLinearGradient9515" x1="122.283" y1="93.047" x2="123.61" y2="91.466" gradientTransform="matrix(1 0 0 1 -52 0)" gradientUnits="userSpaceOnUse" class="svga-on-canvas-eyesiris-gradient-left-5"><stop id="SvgjsStop9516" stop-opacity="1" stop-color="#ffffff" offset="0" ></stop><stop id="SvgjsStop9517" stop-opacity="0" stop-color="#ffffff" offset="1" ></stop></linearGradient><linearGradient id="SvgjsLinearGradient9519" x1="127" y1="85" x2="125" y2="87" gradientTransform="matrix(1 0 0 1 -50 0)" gradientUnits="userSpaceOnUse" class="svga-on-canvas-eyesiris-gradient-left-6"><stop id="SvgjsStop9520" stop-opacity="1" stop-color="#ffffff" offset="0" ></stop><stop id="SvgjsStop9521" stop-opacity="0" stop-color="#ffffff" offset="1" ></stop></linearGradient><linearGradient id="SvgjsLinearGradient9523" x1="130" y1="81" x2="126" y2="85" gradientTransform="matrix(1 0 0 1 -50 0)" gradientUnits="userSpaceOnUse" class="svga-on-canvas-eyesiris-gradient-left-7"><stop id="SvgjsStop9524" stop-opacity="1" stop-color="#ffffff" offset="0" ></stop><stop id="SvgjsStop9525" stop-opacity="0" stop-color="#ffffff" offset="1" ></stop></linearGradient><radialGradient id="SvgjsRadialGradient9528" cx="-578.76" cy="-490.73" r="84.646" gradientTransform="matrix(0.096 -0.0248 0.0245 0.0961 192.4794 119.8404)" gradientUnits="userSpaceOnUse" class="svga-on-canvas-eyesiris-gradient-right-1"><stop id="SvgjsStop9529" stop-opacity="0.8" stop-color="#ffffff" offset="0" ></stop><stop id="SvgjsStop9530" stop-opacity="0" stop-color="#ffffff" offset="1" ></stop></radialGradient><radialGradient id="SvgjsRadialGradient9532" cx="-584.778" cy="-487.329" r="84.644" gradientTransform="matrix(0.0991 8.856325e-004 -0.0011 0.0991 182.3104 135.839)" gradientUnits="userSpaceOnUse" class="svga-on-canvas-eyesiris-gradient-right-2"><stop id="SvgjsStop9533" stop-opacity="0.8" stop-color="#ffffff" offset="0" ></stop><stop id="SvgjsStop9534" stop-opacity="0" stop-color="#ffffff" offset="1" ></stop></radialGradient><linearGradient id="SvgjsLinearGradient9538" x1="120.284" y1="93.047" x2="121.611" y2="91.467" gradientUnits="userSpaceOnUse" class="svga-on-canvas-eyesiris-gradient-right-5"><stop id="SvgjsStop9539" stop-opacity="1" stop-color="#ffffff" offset="0" ></stop><stop id="SvgjsStop9540" stop-opacity="0" stop-color="#ffffff" offset="1" ></stop></linearGradient><linearGradient id="SvgjsLinearGradient9542" x1="127" y1="85" x2="125" y2="87" gradientUnits="userSpaceOnUse" class="svga-on-canvas-eyesiris-gradient-right-6"><stop id="SvgjsStop9543" stop-opacity="1" stop-color="#ffffff" offset="0" ></stop><stop id="SvgjsStop9544" stop-opacity="0" stop-color="#ffffff" offset="1" ></stop></linearGradient><linearGradient id="SvgjsLinearGradient9546" x1="130" y1="81" x2="126" y2="85" gradientUnits="userSpaceOnUse" class="svga-on-canvas-eyesiris-gradient-right-7"><stop id="SvgjsStop9547" stop-opacity="1" stop-color="#ffffff" offset="0" ></stop><stop id="SvgjsStop9548" stop-opacity="0" stop-color="#ffffff" offset="1" ></stop></linearGradient><radialGradient id="SvgjsRadialGradient9611" cx="125.219" cy="89.891" r="13.439" gradientTransform="matrix(-1.0552 0.0927 0.0919 1.0549 197.7875 -17.4055)" gradientUnits="userSpaceOnUse" class="svga-on-canvas-eyesback-gradient-left-0"><stop id="SvgjsStop9612" stop-opacity="1" stop-color="#ffffff" offset="0" ></stop><stop id="SvgjsStop9613" stop-opacity="1" stop-color="#fdfefe" offset="0.544" ></stop><stop id="SvgjsStop9614" stop-opacity="1" stop-color="#f6f8f9" offset="0.74" ></stop><stop id="SvgjsStop9615" stop-opacity="1" stop-color="#eaeff2" offset="0.879" ></stop><stop id="SvgjsStop9616" stop-opacity="1" stop-color="#d9e3e8" offset="0.992" ></stop><stop id="SvgjsStop9617" stop-opacity="1" stop-color="#d8e2e7" offset="1" ></stop></radialGradient><radialGradient id="SvgjsRadialGradient9619" cx="125.219" cy="89.891" r="13.439" gradientTransform="matrix(1.0552 0.0927 -0.0919 1.0549 2.2125 -17.4055)" gradientUnits="userSpaceOnUse" class="svga-on-canvas-eyesback-gradient-right-0"><stop id="SvgjsStop9620" stop-opacity="1" stop-color="#ffffff" offset="0" ></stop><stop id="SvgjsStop9621" stop-opacity="1" stop-color="#fdfefe" offset="0.544" ></stop><stop id="SvgjsStop9622" stop-opacity="1" stop-color="#f6f8f9" offset="0.74" ></stop><stop id="SvgjsStop9623" stop-opacity="1" stop-color="#eaeff2" offset="0.879" ></stop><stop id="SvgjsStop9624" stop-opacity="1" stop-color="#d9e3e8" offset="0.992" ></stop><stop id="SvgjsStop9625" stop-opacity="1" stop-color="#d8e2e7" offset="1" ></stop></radialGradient><radialGradient id="SvgjsRadialGradient9627" cx="125.219" cy="89.891" r="13.439" gradientTransform="matrix(-1.0552 0.0927 0.0919 1.0549 197.7875 -17.4055)" gradientUnits="userSpaceOnUse" class="svga-on-canvas-eyesfront-gradient-left-0"><stop id="SvgjsStop9628" stop-opacity="1" stop-color="#ffffff" offset="0" ></stop><stop id="SvgjsStop9629" stop-opacity="1" stop-color="#fdfefe" offset="0.544" ></stop><stop id="SvgjsStop9630" stop-opacity="1" stop-color="#f6f8f9" offset="0.74" ></stop><stop id="SvgjsStop9631" stop-opacity="1" stop-color="#eaeff2" offset="0.879" ></stop><stop id="SvgjsStop9632" stop-opacity="1" stop-color="#d9e3e8" offset="0.992" ></stop><stop id="SvgjsStop9633" stop-opacity="1" stop-color="#d8e2e7" offset="1" ></stop></radialGradient><radialGradient id="SvgjsRadialGradient9637" cx="124.909" cy="84.956" fx="139.085" fy="84.626" r="17.962" gradientTransform="matrix(0.9998 0.0208 0.0193 -0.9282 -51.4325 161.2135)" gradientUnits="userSpaceOnUse" class="svga-on-canvas-eyesfront-gradient-left-3"><stop id="SvgjsStop9638" stop-opacity="1" stop-color="#dda696" offset="0" ></stop><stop id="SvgjsStop9639" stop-opacity="0.3" stop-color="#dda696" offset="0.7" ></stop><stop id="SvgjsStop9640" stop-opacity="0" stop-color="#ecc4b8" offset="1" ></stop></radialGradient><radialGradient id="SvgjsRadialGradient9642" cx="82.066" cy="77.677" r="19.326" gradientTransform="matrix(0.6928 -0.0978 0.0983 0.7033 9.9183 45.7976)" gradientUnits="userSpaceOnUse" class="svga-on-canvas-eyesfront-gradient-left-4"><stop id="SvgjsStop9643" stop-opacity="0" stop-color="#000000" offset="0.9" ></stop><stop id="SvgjsStop9644" stop-opacity="0.3" stop-color="#000000" offset="1" ></stop></radialGradient><radialGradient id="SvgjsRadialGradient9648" cx="125.219" cy="89.891" r="13.439" gradientTransform="matrix(1.0552 0.0927 -0.0919 1.0549 2.2125 -17.4055)" gradientUnits="userSpaceOnUse" class="svga-on-canvas-eyesfront-gradient-right-0"><stop id="SvgjsStop9649" stop-opacity="1" stop-color="#ffffff" offset="0" ></stop><stop id="SvgjsStop9650" stop-opacity="1" stop-color="#fdfefe" offset="0.544" ></stop><stop id="SvgjsStop9651" stop-opacity="1" stop-color="#f6f8f9" offset="0.74" ></stop><stop id="SvgjsStop9652" stop-opacity="1" stop-color="#eaeff2" offset="0.879" ></stop><stop id="SvgjsStop9653" stop-opacity="1" stop-color="#d9e3e8" offset="0.992" ></stop><stop id="SvgjsStop9654" stop-opacity="1" stop-color="#d8e2e7" offset="1" ></stop></radialGradient><radialGradient id="SvgjsRadialGradient9658" cx="124.909" cy="84.956" fx="139.085" fy="84.626" r="17.962" gradientTransform="matrix(-0.9998 0.0208 -0.0193 -0.9282 251.4325 161.2135)" gradientUnits="userSpaceOnUse" class="svga-on-canvas-eyesfront-gradient-right-3"><stop id="SvgjsStop9659" stop-opacity="1" stop-color="#dda696" offset="0" ></stop><stop id="SvgjsStop9660" stop-opacity="0.3" stop-color="#dda696" offset="0.7" ></stop><stop id="SvgjsStop9661" stop-opacity="0" stop-color="#ecc4b8" offset="1" ></stop></radialGradient><radialGradient id="SvgjsRadialGradient9663" cx="82.066" cy="77.677" r="19.326" gradientTransform="matrix(-0.6928 -0.0978 -0.0983 0.7033 190.0817 45.7978)" gradientUnits="userSpaceOnUse" class="svga-on-canvas-eyesfront-gradient-right-4"><stop id="SvgjsStop9664" stop-opacity="0" stop-color="#000000" offset="0.9" ></stop><stop id="SvgjsStop9665" stop-opacity="0.3" stop-color="#000000" offset="1" ></stop></radialGradient><linearGradient id="SvgjsLinearGradient9707" x1="100" y1="142" x2="100" y2="139" gradientUnits="userSpaceOnUse" class="svga-on-canvas-mouth-gradient-single-0"><stop id="SvgjsStop9708" stop-opacity="1" stop-color="#e4b5a7" offset="0.1" ></stop><stop id="SvgjsStop9709" stop-opacity="1" stop-color="#dda696" offset="1" ></stop></linearGradient><linearGradient id="SvgjsLinearGradient9734" x1="99.98" y1="171.27" x2="99.98" y2="136.351" gradientUnits="userSpaceOnUse" class="svga-on-canvas-chinshadow-gradient-single-0"><stop id="SvgjsStop9735" stop-opacity="0.8" stop-color="#dda696" offset="0" ></stop><stop id="SvgjsStop9736" stop-opacity="1" stop-color="#be725b" offset="0.7" ></stop></linearGradient></defs></svg>