<svg xmlns="http://www.w3.org/2000/svg" version="1.1" width="600px" height="600px" xlink="http://www.w3.org/1999/xlink" style="overflow:hidden!important;"><g id="svga-group-wrapper" transform="scale(3 3)"><g id="svga-group-backs-single"><path id="SvgjsPath12993" d="M225 225H-25V-25h250V225z" fill="#cdb380" stroke-width="none" opacity="1" stroke="none"></path><path id="SvgjsPath12994" d="M24.147 14.53c-2.146 1.82-9.173 6.469-9.173 6.469S8.02 16.344 5.893 14.53c-2.69-2.292-2.351-6.441 0-8.82 2.35-2.384 6.435-2.403 9.081 0.844 2.825-3.278 6.734-3.228 9.083-0.844C26.41 8.089 26.842 12.246 24.147 14.53zM80.057 5.71c-2.349-2.384-6.258-2.434-9.083 0.844 -2.646-3.248-6.731-3.228-9.081-0.844 -2.351 2.379-2.69 6.528 0 8.82 2.127 1.813 9.081 6.469 9.081 6.469s7.027-4.648 9.173-6.469C82.842 12.246 82.41 8.089 80.057 5.71zM137.057 5.71c-2.349-2.384-6.258-2.434-9.083 0.844 -2.646-3.248-6.731-3.228-9.081-0.844 -2.351 2.379-2.69 6.528 0 8.82 2.128 1.813 9.081 6.469 9.081 6.469s7.027-4.648 9.174-6.469C139.843 12.246 139.409 8.089 137.057 5.71zM194.057 5.71c-2.349-2.384-6.258-2.434-9.083 0.844 -2.646-3.248-6.731-3.228-9.081-0.844 -2.351 2.379-2.69 6.528 0 8.82 2.128 1.813 9.081 6.469 9.081 6.469s7.027-4.648 9.174-6.469C196.843 12.246 196.409 8.089 194.057 5.71zM52.057 28.21c-2.349-2.384-6.258-2.434-9.083 0.844 -2.646-3.248-6.731-3.228-9.081-0.844 -2.351 2.379-2.69 6.528 0 8.82 2.127 1.813 9.081 6.469 9.081 6.469s7.027-4.648 9.173-6.469C54.842 34.746 54.41 30.589 52.057 28.21zM108.559 28.21c-2.349-2.384-6.258-2.434-9.085 0.844 -2.646-3.248-6.731-3.228-9.081-0.844 -2.351 2.379-2.69 6.528 0 8.82 2.127 1.813 9.081 6.469 9.081 6.469s7.03-4.648 9.175-6.469C111.344 34.746 110.912 30.589 108.559 28.21zM165.555 28.21c-2.349-2.384-6.258-2.434-9.083 0.844 -2.646-3.248-6.731-3.228-9.081-0.844 -2.351 2.379-2.69 6.528 0 8.82 2.128 1.813 9.081 6.469 9.081 6.469s7.027-4.648 9.174-6.469C168.341 34.746 167.907 30.589 165.555 28.21zM24.147 60.03c-2.146 1.82-9.173 6.469-9.173 6.469S8.02 61.844 5.893 60.03c-2.69-2.292-2.351-6.441 0-8.82 2.35-2.384 6.435-2.403 9.081 0.844 2.825-3.278 6.734-3.228 9.083-0.844C26.41 53.589 26.842 57.746 24.147 60.03zM80.057 51.21c-2.349-2.384-6.258-2.434-9.083 0.844 -2.646-3.248-6.731-3.228-9.081-0.844 -2.351 2.379-2.69 6.528 0 8.82 2.127 1.813 9.081 6.469 9.081 6.469s7.027-4.648 9.173-6.469C82.842 57.746 82.41 53.589 80.057 51.21zM137.057 51.21c-2.349-2.384-6.258-2.434-9.083 0.844 -2.646-3.248-6.731-3.228-9.081-0.844 -2.351 2.379-2.69 6.528 0 8.82 2.128 1.813 9.081 6.469 9.081 6.469s7.027-4.648 9.174-6.469C139.843 57.746 139.409 53.589 137.057 51.21zM194.057 51.21c-2.349-2.384-6.258-2.434-9.083 0.844 -2.646-3.248-6.731-3.228-9.081-0.844 -2.351 2.379-2.69 6.528 0 8.82 2.128 1.813 9.081 6.469 9.081 6.469s7.027-4.648 9.174-6.469C196.843 57.746 196.409 53.589 194.057 51.21zM52.057 72.21c-2.349-2.384-6.258-2.434-9.083 0.844 -2.646-3.248-6.731-3.228-9.081-0.844 -2.351 2.379-2.69 6.528 0 8.82 2.127 1.813 9.081 6.469 9.081 6.469s7.027-4.648 9.173-6.469C54.842 78.746 54.41 74.589 52.057 72.21zM108.559 72.21c-2.349-2.384-6.258-2.434-9.085 0.844 -2.646-3.248-6.731-3.228-9.081-0.844 -2.351 2.379-2.69 6.528 0 8.82 2.127 1.813 9.081 6.469 9.081 6.469s7.03-4.648 9.175-6.469C111.344 78.746 110.912 74.589 108.559 72.21zM165.555 72.21c-2.349-2.384-6.258-2.434-9.083 0.844 -2.646-3.248-6.731-3.228-9.081-0.844 -2.351 2.379-2.69 6.528 0 8.82 2.128 1.813 9.081 6.469 9.081 6.469s7.027-4.648 9.174-6.469C168.341 78.746 167.907 74.589 165.555 72.21zM24.147 103.03c-2.146 1.82-9.173 6.469-9.173 6.469s-6.954-4.655-9.081-6.469c-2.69-2.292-2.351-6.441 0-8.82 2.35-2.384 6.435-2.403 9.081 0.844 2.825-3.278 6.734-3.228 9.083-0.844C26.41 96.589 26.842 100.746 24.147 103.03zM80.057 94.21c-2.349-2.384-6.258-2.434-9.083 0.844 -2.646-3.248-6.731-3.228-9.081-0.844 -2.351 2.379-2.69 6.528 0 8.82 2.127 1.813 9.081 6.469 9.081 6.469s7.027-4.648 9.173-6.469C82.842 100.746 82.41 96.589 80.057 94.21zM137.057 94.21c-2.349-2.384-6.258-2.434-9.083 0.844 -2.646-3.248-6.731-3.228-9.081-0.844 -2.351 2.379-2.69 6.528 0 8.82 2.128 1.813 9.081 6.469 9.081 6.469s7.027-4.648 9.174-6.469C139.843 100.746 139.409 96.589 137.057 94.21zM194.057 94.21c-2.349-2.384-6.258-2.434-9.083 0.844 -2.646-3.248-6.731-3.228-9.081-0.844 -2.351 2.379-2.69 6.528 0 8.82 2.128 1.813 9.081 6.469 9.081 6.469s7.027-4.648 9.174-6.469C196.843 100.746 196.409 96.589 194.057 94.21zM52.057 114.961c-2.349-2.384-6.258-2.434-9.083 0.844 -2.646-3.247-6.731-3.228-9.081-0.844 -2.351 2.379-2.69 6.528 0 8.819 2.127 1.813 9.081 6.469 9.081 6.469s7.027-4.648 9.173-6.469C54.842 121.496 54.41 117.34 52.057 114.961zM108.559 114.961c-2.349-2.384-6.258-2.434-9.085 0.844 -2.646-3.247-6.731-3.228-9.081-0.844 -2.351 2.379-2.69 6.528 0 8.819 2.127 1.813 9.081 6.469 9.081 6.469s7.03-4.648 9.175-6.469C111.344 121.496 110.912 117.34 108.559 114.961zM165.555 114.961c-2.349-2.384-6.258-2.434-9.083 0.844 -2.646-3.247-6.731-3.228-9.081-0.844 -2.351 2.379-2.69 6.528 0 8.819 2.128 1.813 9.081 6.469 9.081 6.469s7.027-4.648 9.174-6.469C168.341 121.496 167.907 117.34 165.555 114.961zM24.147 146.28c-2.146 1.82-9.173 6.469-9.173 6.469s-6.954-4.655-9.081-6.469c-2.69-2.291-2.351-6.44 0-8.819 2.35-2.384 6.435-2.403 9.081 0.844 2.825-3.277 6.734-3.228 9.083-0.844C26.41 139.84 26.842 143.996 24.147 146.28zM80.057 137.461c-2.349-2.384-6.258-2.434-9.083 0.844 -2.646-3.247-6.731-3.228-9.081-0.844 -2.351 2.379-2.69 6.528 0 8.819 2.127 1.813 9.081 6.469 9.081 6.469s7.027-4.648 9.173-6.469C82.842 143.996 82.41 139.84 80.057 137.461zM137.057 137.461c-2.349-2.384-6.258-2.434-9.083 0.844 -2.646-3.247-6.731-3.228-9.081-0.844 -2.351 2.379-2.69 6.528 0 8.819 2.128 1.813 9.081 6.469 9.081 6.469s7.027-4.648 9.174-6.469C139.843 143.996 139.409 139.84 137.057 137.461zM194.057 137.461c-2.349-2.384-6.258-2.434-9.083 0.844 -2.646-3.247-6.731-3.228-9.081-0.844 -2.351 2.379-2.69 6.528 0 8.819 2.128 1.813 9.081 6.469 9.081 6.469s7.027-4.648 9.174-6.469C196.843 143.996 196.409 139.84 194.057 137.461zM52.057 160.461c-2.349-2.384-6.258-2.434-9.083 0.844 -2.646-3.247-6.731-3.228-9.081-0.844 -2.351 2.379-2.69 6.528 0 8.819 2.127 1.813 9.081 6.469 9.081 6.469s7.027-4.648 9.173-6.469C54.842 166.996 54.41 162.84 52.057 160.461zM108.559 160.461c-2.349-2.384-6.258-2.434-9.085 0.844 -2.646-3.247-6.731-3.228-9.081-0.844 -2.351 2.379-2.69 6.528 0 8.819 2.127 1.813 9.081 6.469 9.081 6.469s7.03-4.648 9.175-6.469C111.344 166.996 110.912 162.84 108.559 160.461zM165.555 160.461c-2.349-2.384-6.258-2.434-9.083 0.844 -2.646-3.247-6.731-3.228-9.081-0.844 -2.351 2.379-2.69 6.528 0 8.819 2.128 1.813 9.081 6.469 9.081 6.469s7.027-4.648 9.174-6.469C168.341 166.996 167.907 162.84 165.555 160.461zM24.147 190.28c-2.146 1.82-9.173 6.469-9.173 6.469s-6.954-4.655-9.081-6.469c-2.69-2.291-2.351-6.44 0-8.819 2.35-2.384 6.435-2.403 9.081 0.844 2.825-3.277 6.734-3.228 9.083-0.844C26.41 183.84 26.842 187.996 24.147 190.28zM80.057 181.461c-2.349-2.384-6.258-2.434-9.083 0.844 -2.646-3.247-6.731-3.228-9.081-0.844 -2.351 2.379-2.69 6.528 0 8.819 2.127 1.813 9.081 6.469 9.081 6.469s7.027-4.648 9.173-6.469C82.842 187.996 82.41 183.84 80.057 181.461zM137.057 181.461c-2.349-2.384-6.258-2.434-9.083 0.844 -2.646-3.247-6.731-3.228-9.081-0.844 -2.351 2.379-2.69 6.528 0 8.819 2.128 1.813 9.081 6.469 9.081 6.469s7.027-4.648 9.174-6.469C139.843 187.996 139.409 183.84 137.057 181.461zM194.057 181.461c-2.349-2.384-6.258-2.434-9.083 0.844 -2.646-3.247-6.731-3.228-9.081-0.844 -2.351 2.379-2.69 6.528 0 8.819 2.128 1.813 9.081 6.469 9.081 6.469s7.027-4.648 9.174-6.469C196.843 187.996 196.409 183.84 194.057 181.461z" fill="#be9f63" stroke-width="none" opacity="1" stroke="none"></path></g><g id="svga-group-subwrapper" ><g id="svga-group-hair-back" ><path id="SvgjsPath13006" d="M151.582 41.064l-99.508-5.662c0 0-25.074 182.88-25.074 188.596 0 0 100.899 0.72 143.907 0C170.103 216.079 151.582 41.064 151.582 41.064z" fill="#0c080c" stroke-width="none" opacity="1"></path></g><g id="svga-group-humanbody-single"><path id="SvgjsPath12847" d="M190.858 199.866c-6.008-10.158-13.474-11.973-19.628-13.936 -6.323-2.016-19.346-3.178-26.449-4.6 -6.86-1.373-23.153-5.789-23.339-13.488 -0.192-8.066 4.291-40.09 4.291-40.09H74.005c0 0 4.487 32.023 4.294 40.09 -0.184 7.699-16.48 12.115-23.341 13.488 -7.104 1.422-20.125 2.584-26.448 4.6 -6.156 1.963-13.624 3.777-19.632 13.936 -3.644 6.16-6.008 16.133-6.008 27.133h194C196.869 215.999 194.509 206.026 190.858 199.866z" fill="#d9b8af" stroke-width="none" opacity="1" stroke="none"></path><path id="SvgjsPath12848" d="M121.442 167.843c2.495 10.929 18.165 13.698 26.293 15.325 21.909 4.379 33.772 5.134 42.297 19.539 2.903 4.916 5.459 15.864 5.962 24.153 1.835 0.291 0.531-17.432-5.136-26.994 -9.742-16.472-29.089-15.135-46.077-18.535C137.921 179.958 121.628 175.542 121.442 167.843L121.442 167.843zM78.558 167.843c-0.186 7.699-16.479 12.115-23.339 13.488 -16.988 3.4-36.335 2.063-46.077 18.535 -5.667 9.563-6.971 27.285-5.136 26.994 0.503-8.289 3.059-19.237 5.962-24.153 8.524-14.405 20.388-15.16 42.297-19.539C60.393 181.541 76.063 178.771 78.558 167.843L78.558 167.843z" fill="#e8d7d3" stroke-width="none" opacity="1" stroke="none"></path><path id="SvgjsPath12849" d="M51.206 189.513c0 0 28.641 0.299 33.473 1.885 2.314 0.758 8.372 5.633 8.372 5.633s-6.556-3.17-8.658-3.758C79.51 191.909 51.206 189.513 51.206 189.513zM99.795 199.999c2.053-0.041 7.887-3.799 7.887-3.799s-5.574 2.059-7.342 2.16c-1.491 0.086-6.366-1.238-6.366-1.238S98.112 200.032 99.795 199.999zM117.008 192.757c6.75-1.818 29.786-3.23 29.786-3.23s-23.791-0.516-30.51 1.725c-2.252 0.752-7.562 5.16-7.562 5.16S114.786 193.354 117.008 192.757z" fill="#ca9b8e" stroke-width="none" opacity="1" stroke="none"></path><path id="SvgjsPath12850" d="M190.858 199.866c-9.741-16.471-29.122-15.142-46.077-18.535 -6.86-1.373-23.153-5.789-23.339-13.488 -0.192-8.066 4.291-40.09 4.291-40.09H74.005c0 0 4.487 32.023 4.294 40.09 -0.184 7.699-16.48 12.115-23.341 13.488 -7.104 1.422-20.125 2.584-26.448 4.6 -6.156 1.963-13.624 3.777-19.632 13.936 -3.644 6.16-6.008 16.133-6.008 27.133h194C196.869 215.999 194.509 206.026 190.858 199.866z" fill="none" stroke="#ab6957" stroke-width="1.5" opacity="1"></path></g><g id="svga-group-chinshadow-single"><path id="SvgjsPath13145" d="M90.469 169.769c4.474 1.646 14.594 1.646 19.067 0 3.511-1.291 7.479-4.019 11.489-7.484 0.785-10.522 3.279-28.936 3.919-33.578 -1.113-0.109-2.256-0.21-3.428-0.303H78.609c-1.305 0.103-2.578 0.216-3.811 0.339 0.643 4.663 3.096 22.765 3.899 33.297C82.804 165.622 86.875 168.447 90.469 169.769z" fill="url(#SvgjsLinearGradient13146)" opacity="1"></path></g><g id="svga-group-clothes-single" ><path id="SvgjsPath13131" d="M2.258 224.437c-2.481-20.683 6.836-35.34 29.389-41.745 6.619-1.876 14.221-2.843 15.221-2.903 -0.032-0.179-0.039-0.169-0.039-0.532h-0.03c0.074-6.837 7.69-5.493 9.87-5.953 8.623-1.833 11.551-10.877 21.398-8.496 0.242 2.074 0.063 4.47-1.168 13.335 9.286 19.972 19.359 18.247 22.939 29.43 3.245-10.001 14.771-11.587 23.26-29.433 -0.558-5.015-1.771-9.396-1.261-13.568l0.05-0.036c6.596-2.198 9.477 0.747 12.104 3.281 8.005 7.727 12.259 2.831 16.262 6.355 1.592 1.403 2.167 3.398 2.167 5.54 18.244 2.649 49.051 3.68 44.89 44.185l0.079 0.09C178.926 223.985 54.422 228.609 2.258 224.437z" fill="#335529" stroke-width="none" opacity="1" stroke="none"></path><path id="SvgjsPath13132" d="M100.187 206.617c3.609-9.059 14.44-11.18 22.618-27.884 0.08-0.092 0.291-0.507 0.557-1.056 -0.135-1.56-0.313-3.188-1.034-4.899 -0.442-2.854-0.796-5.524-0.496-8.114 1.68 0.489 3.271 1.072 4.362 2.264 1.601 1.748 0.386 4.776-1.148 7.69C122.164 187.172 114.949 196.237 100.187 206.617zM168.869 197.402c2.5 8.834 4.167 18.167 2.165 27.128 1.67-0.041 2.288-0.081 3.84-0.118C175.566 215.002 173.869 204.736 168.869 197.402zM132 199c-10.913 6.366-21.885 8.816-31.799 17.276 -9.916-8.437-20.994-9.911-31.906-16.276 -5-2-12.672-9.104-17.36-14.104 14.75 22.375 25.309 16.026 48.934 31.108 23.625-15.082 34.25-9.957 49-32.332C144.182 189.673 137 197 132 199zM99.796 207.68c-3.609-9.059-14.018-12.242-22.196-28.946 -0.08-0.092-0.291-0.507-0.557-1.056 0.135-1.56-0.22-3.273 0.5-4.985 0.442-2.854 0.635-5.185 0.335-7.774 -1.68 0.489-2.577 0.818-3.667 2.01 -1.601 1.748-0.386 4.776 1.148 7.69C78.241 187.172 85.034 197.3 99.796 207.68zM28.536 196.402c-3.667 8-3.697 18.6-3.005 28.01 1.552 0.037 2.17 0.077 3.84 0.118C27.369 215.569 27.869 205.402 28.536 196.402zM99.869 209.409c13.958-4.18 28.804-11.829 41.144-30.515 -11.142 15.02-27.705 23.887-40.827 29.327 -13.536-4.901-29.742-14.66-39.19-27.776C72.066 198.567 85.911 205.229 99.869 209.409z" fill="#24461b" stroke-width="none" opacity="1" stroke="none"></path><path id="SvgjsPath13133" d="M197.389 223.985c-0.097 0-0.216 0.001-0.318 0.001 -0.359-7.608-1.073-15.39-5.076-22.251 -8-15-25-15.375-40.994-18.735 -2 0-3.032-5.541-4.506-7.015 -1.25-1.25-10.875-1.25-13.926-9.508 0.494 0.438 0.963 0.895 1.423 1.338 8.005 7.727 12.259 2.831 16.262 6.355 1.592 1.403 2.167 3.398 2.167 5.54 18.244 2.649 49.051 3.68 44.89 44.185L197.389 223.985zM2.017 224.985c0.097 0 0.216 0.001 0.318 0.001 0.359-7.608 1.173-13.796 5.176-20.657 8-15 25.299-18.367 41.293-21.728 2.939-1.116 1.391-3.242 2.864-4.716 1.25-1.25 8.2-1.275 17.825-11.4 -0.494 0.438-2.62 0.887-3.08 1.33 -8.005 7.727-14.045 5.545-16.262 6.355 -2.735 1-3.158 3.423-3.158 5.564 -18.244 2.649-46.994 8-44.898 45.16L2.017 224.985z" fill="#44643a" stroke-width="none" opacity="1" stroke="none"></path><path id="SvgjsPath13134" d="M196.159 204.835c-6.314-22.445-28.114-22.805-43.64-25.21 0-8.395-7.898-6.726-11.53-7.5 -8.012-1.717-7.761-10.998-19.24-7.649 -0.483 3.964 0.445 7.44 1.26 13.62 -8.416 17.668-20.089 19.653-23.169 29.149 -3.372-10.536-13.67-9.479-22.84-29.09 1.274-9.228 1.403-11.365 1.16-13.43 -8.753-1.998-10.727 3.679-18.64 7.47 -4.8 2.249-6.159 0.228-10.28 2.24 -1.71 0.83-2.57 3.08-2.51 4.91 -0.01 0.01 0 0.01 0 0.01 0 0.12 0 0.229 0.02 0.34 -1 0.065-8.597 1.049-15.13 2.9 -22.821 6.48-31.958 21.382-29.45 41.939 10.13 0 20.114 3.728 175.28-0.069 7.202-0.181 19.426-0.381 19.939-0.381C197.569 223.085 198.475 213.097 196.159 204.835zM2.309 224.315c-1.146-27.296 17.235-39.776 44.34-44.05 15.316 25.402 34.063 21.702 53.02 35.91 -17.183-14.276-35.189-12.385-52.5-36.25 -0.194-1.997 0.851-4.209 3.01-5.07 1.53-0.601 3.17-0.43 4.77-0.42 6.04 0.05 10.69-4.681 15.16-8.15 2.13-1.42 5.3-1.49 7.84-1.1 0.198 3.302-1.077 8.271-1.5 11.79 -0.89-1.96-1.73-3.971-2.57-5.98 10.623 31.175 21.215 24.115 25.95 37.05 -1-0.279-17.902-6.352-31.37-19.739 -2.86-2.831-8.527-9.069-8.96-9.65 16.676 22.564 27.331 23.715 40.38 29.53 0 0.01 0.01 0.03 0.01 0.04 0.011 0.033 0.064 0.188 0.08 0.22 0.06-0.03 0.13-0.06 0.2-0.08 0.02-0.02 0.04-0.03 0.07-0.03 1.807-0.882 13.688-5.019 22.729-11.229 9.309-6.403 19.925-20.281 19.131-19.28 -15.556 15.814-17.958 19.4-41.931 30.37 -0.02 0-0.04-0.01-0.06-0.02 -0.02-0.11-0.05-0.221-0.09-0.33 0.01-0.051 0.03-0.101 0.05-0.15 4.212-11.556 16.587-7.09 26.84-38.78 -1.05 2.74-2.15 5.44-3.39 8.08 -0.389-4.649-1.741-8.305-1.591-12.13 1.777-0.593 6.598-0.873 7.931 0.46 5.566 4.755 6.012 8.24 15.08 8.24 2.9 0.019 6.703 0.384 7.13 5.71 -0.53 0.786-4.503 5.471-8.26 9.2 -13.155 13.082-24.923 13.333-43.13 27.25 0.45 0 1.37-0.96 1.73-1.21 14.236-10.101 24.469-9.945 37.56-20.641 6.031-4.927 11.838-12.81 12.46-13.81 0.021 0.01 0.051 0.01 0.07 0.01 24.023 4.132 45.554 8.064 44.61 43.83C89.435 223.233 55.562 226.094 2.309 224.315z" fill="#0e2707" stroke-width="none" opacity="1" stroke="none"></path></g><g id="svga-group-head" ><g id="svga-group-ears-left" style="display:none;"><path id="SvgjsPath12984" d="M47.001 83.974c-1.376-2.313-5.638-7.997-9.98-6.603 -2.749 0.882-3.293 3.765-3.735 6.311 -0.588 3.386 0.471 10.083 1.389 12.503 0.881 2.325 3.533 6.816 5.264 8.527 2.13 2.1 4.775 8.793 5.194 9.487 0.66 1.097 1.536 2.745 4.122 2.538 2.853-0.229 4.584-1.742 5.856-1.999C58.253 114.109 50.582 89.995 47.001 83.974z" fill="#d9b8af" stroke="#ab6957" stroke-width="1.5" opacity="1"></path><path id="SvgjsPath12985" d="M44.197 97.997c-0.132-0.548 0.007-1.47 0.142-2.362 0.124-0.812 0.24-1.579 0.169-2.121 -0.267-2.032-1.773-5.893-2.757-7.985 -1.132-2.407-2.963-5.439-5.262-6.221 -0.95-0.324-1.575 0.063-1.938 0.456 -0.266 0.289-0.325 0.627-0.238 0.667 0.086 0.04 0.285-0.24 0.572-0.504 0.235-0.216 0.579-0.402 1.051-0.363 -0.19 1.011-1.167 6.49-0.744 10.225 0.333 2.938 1.593 5.131 1.79 5.46 0.029 0.346 0.077 0.685 0.148 1.014 0.929 4.287 4.971 9.163 6.378 10.758 0.259 0.295 0.531 0.47 0.598 0.398 0.066-0.072-0.094-0.364-0.353-0.66 -1.388-1.585-5.391-6.442-6.289-10.579 -0.952-4.389 2.318-10.896 3.048-12.272 0.371 0.646 0.687 1.267 0.93 1.785 0.19 0.406 0.402 0.881 0.619 1.395 -0.429 0.718-3.434 5.958-2.338 10.153 0.406 1.546 2.235 3.54 3.447 4.086 0.667 0.301 0.919 0.75 1.209 1.271 0.336 0.604 0.718 1.288 1.828 1.784 0.225 0.102 0.429 0.142 0.61 0.142 0.313 0 0.551-0.126 0.725-0.276 0.018 0.266 0.017 0.604 0.009 0.917 -0.012 0.404 0.042 0.737 0.137 0.745 0.094 0.008 0.196-0.313 0.207-0.717 0.016-0.496 0.013-1.11-0.072-1.403 -0.248-0.865-1.008-1.841-1.813-2.875C45.221 99.896 44.403 98.844 44.197 97.997zM36.95 94.196c-2.177-6.731 0.656-12.54 1.144-13.464 0.85 0.775 1.6 1.811 2.21 2.824C39.86 84.365 37.041 89.669 36.95 94.196zM46.341 104.042c-1.004-0.447-1.339-1.051-1.666-1.633 -0.293-0.527-0.598-1.072-1.369-1.42 -0.168-0.075-0.352-0.191-0.542-0.323 -2.486-5.906 0.272-8.488 0.963-9.017 0.211 0.722 0.369 1.384 0.439 1.915 0.063 0.488-0.052 1.263-0.167 2.012 -0.142 0.929-0.286 1.89-0.137 2.512 0.226 0.926 1.069 2.009 1.884 3.057 0.723 0.929 1.466 1.888 1.721 2.67C47.359 103.972 47.017 104.345 46.341 104.042z" fill="#ab6957" stroke-width="none" opacity="1" stroke="none"></path></g><g id="svga-group-ears-right" style="display:none;"><path id="SvgjsPath12986" d="M152.736 83.974c1.377-2.313 5.639-7.997 9.98-6.603 2.75 0.882 3.293 3.765 3.736 6.311 0.588 3.386-0.471 10.083-1.389 12.503 -0.881 2.325-3.533 6.816-5.266 8.527 -2.129 2.1-4.775 8.793-5.193 9.487 -0.658 1.097-1.535 2.745-4.121 2.538 -2.854-0.229-4.584-1.742-5.857-1.999C141.484 114.109 149.156 89.995 152.736 83.974z" fill="#d9b8af" stroke="#ab6957" stroke-width="1.5" opacity="1"></path><path id="SvgjsPath12987" d="M153.727 100.913c-0.805 1.033-1.564 2.009-1.813 2.875 -0.086 0.293-0.088 0.907-0.072 1.403 0.012 0.404 0.113 0.725 0.207 0.717s0.148-0.341 0.137-0.745c-0.008-0.313-0.008-0.651 0.01-0.917 0.174 0.15 0.412 0.276 0.725 0.276 0.182 0 0.385-0.04 0.609-0.142 1.109-0.496 1.492-1.18 1.828-1.784 0.289-0.52 0.543-0.969 1.209-1.271 1.213-0.546 3.041-2.54 3.447-4.086 1.096-4.194-1.908-9.435-2.338-10.153 0.217-0.513 0.43-0.988 0.619-1.395 0.244-0.518 0.559-1.139 0.93-1.785 0.73 1.377 4 7.883 3.049 12.272 -0.896 4.137-4.9 8.994-6.289 10.579 -0.258 0.296-0.418 0.588-0.352 0.66 0.066 0.071 0.338-0.104 0.598-0.398 1.406-1.596 5.449-6.471 6.379-10.758 0.07-0.329 0.117-0.668 0.146-1.014 0.197-0.329 1.459-2.523 1.791-5.46 0.422-3.735-0.555-9.214-0.744-10.225 0.473-0.039 0.814 0.146 1.051 0.363 0.287 0.264 0.486 0.544 0.572 0.504s0.027-0.378-0.238-0.667c-0.363-0.393-0.988-0.779-1.938-0.456 -2.299 0.782-4.131 3.814-5.262 6.221 -0.984 2.093-2.49 5.953-2.758 7.985 -0.072 0.542 0.045 1.309 0.17 2.121 0.135 0.892 0.273 1.814 0.141 2.362C155.336 98.844 154.518 99.896 153.727 100.913zM159.434 83.555c0.611-1.013 1.361-2.049 2.211-2.824 0.488 0.925 3.32 6.733 1.145 13.464C162.697 89.669 159.879 84.365 159.434 83.555zM152.27 103.816c0.254-0.782 0.998-1.741 1.721-2.67 0.816-1.048 1.658-2.131 1.885-3.057 0.148-0.622 0.004-1.583-0.137-2.512 -0.115-0.749-0.23-1.524-0.166-2.012 0.068-0.531 0.227-1.193 0.438-1.915 0.691 0.529 3.449 3.111 0.965 9.017 -0.191 0.132-0.375 0.248-0.543 0.323 -0.771 0.348-1.074 0.893-1.369 1.42 -0.326 0.582-0.662 1.186-1.666 1.633C152.721 104.345 152.379 103.972 152.27 103.816z" fill="#ab6957" stroke-width="none" opacity="1" stroke="none"></path></g><g id="svga-group-faceshape-wrap" ><g id="svga-group-faceshape-single" ><path id="SvgjsPath13142" d="M144.004 125.052c-6.87 10.737-23.072 30.026-34.468 34.218 -4.474 1.646-14.594 1.646-19.067 0 -11.396-4.192-27.596-23.481-34.467-34.218 -6.753-10.551-14.852-47.803-14.863-47.856 -1.3-4.912-1.996-10.066-2.004-15.382C39.082 28.339 66.289 1.168 99.907 1.116c33.621-0.052 60.913 27.032 60.963 60.506 0.009 5.316-0.669 10.473-1.952 15.389C158.901 77.063 150.78 114.46 144.004 125.052z" fill="#d9b8af" stroke-width="none" opacity="1"></path><path id="SvgjsPath13143" d="M110.152 1.969c26.994 6.24 47.097 30.337 47.052 59.111 -0.009 5.315-0.704 10.471-2.004 15.382 -0.012 0.053-7.377 37.307-14.13 47.856 -6.872 10.735-22.339 29.292-33.734 33.484 -1.476 0.544-5.027 1.092-7.334 1.092 -2.307 0-5.857-0.548-7.333-1.092 -11.396-4.192-26.863-22.749-33.734-33.484 -6.753-10.55-14.119-47.803-14.13-47.856 -1.3-4.911-1.996-10.066-2.004-15.382C42.756 32.307 62.857 8.209 89.853 1.969 61.03 6.788 39.087 31.751 39.134 61.813c0.008 5.315 0.704 10.47 2.004 15.382 0.012 0.053 8.11 37.306 14.863 47.856 6.871 10.736 23.072 30.025 34.467 34.218 2.239 0.824 5.889 1.235 9.537 1.232 3.646 0.001 7.292-0.408 9.53-1.232 11.396-4.192 27.596-23.481 34.468-34.218 6.753-10.551 14.852-47.803 14.862-47.856 1.3-4.912 1.996-10.066 2.004-15.382C160.918 31.751 138.975 6.788 110.152 1.969z" fill="#d1a99e" stroke-width="none" opacity="1"></path><path id="SvgjsPath13144" d="M144.004 125.052c-6.87 10.737-23.072 30.026-34.468 34.218 -4.474 1.646-14.594 1.646-19.067 0 -11.396-4.192-27.596-23.481-34.467-34.218 -6.753-10.551-14.852-47.803-14.863-47.856 -1.3-4.912-1.996-10.066-2.004-15.382C39.082 28.339 66.289 1.168 99.907 1.116c33.621-0.052 60.913 27.032 60.963 60.506 0.009 5.316-0.669 10.473-1.952 15.389C158.901 77.063 150.78 114.46 144.004 125.052z" fill="none" stroke="#ab6957" stroke-width="1.5" opacity="1"></path></g></g><g id="svga-group-mouth-single" ><path id="SvgjsPath13125" d="M94.859 136.427c0.259 0.002 11.018-0.099 11.018-0.099s-3.174 0.714-5.865 0.688C97.688 136.997 94.859 136.427 94.859 136.427z" fill="#ca9b8e" stroke-width="none" opacity="1" stroke="none"></path><path id="SvgjsPath13126" d="M86.537 134.998c-0.649-0.642 3.796-2.875 5.987-3.547 2.769-0.882 5.481-0.17 8.3-0.383 2.571-0.195 4.901-0.735 7.421 0.076 2.277 0.733 6.579 3.048 6.292 3.601 -0.289 0.558-4.189-1.703-6.378-2.18 -2.508-0.534-4.781 0.241-7.28 0.488 -2.558 0.254-5.083-0.713-7.64-0.307C90.92 133.114 86.894 135.351 86.537 134.998z" fill="#ab6957" stroke-width="none" opacity="1" stroke="none"></path></g><g id="svga-group-eyes-left" ><g id="svga-group-eyesback-left"><path id="SvgjsPath13029" d="M60.956 84.178c11.334-7.516 23.563-3.623 26.092 3.5 0.994 2.798 0.327 5.276-1.739 6.934C70.023 100.123 62.391 92.664 60.956 84.178z" fill="url(#SvgjsRadialGradient13030)" opacity="1"></path></g><g id="svga-group-eyesiriswrapper-left" transform="translate(-0.5 1.5)"><g id="svga-group-eyesiriscontrol-left" ><g id="svga-group-eyesiris-left" ><path id="SvgjsPath13087" d="M72.886 86.517l-6.655-1.519C66.084 85.643 66 86.311 66 86.999c0 0.689 0.085 1.357 0.231 2.001l8.768-2.001L72.886 86.517z" fill="#ea2e2e" stroke-width="none" opacity="1"></path><path id="SvgjsPath13088" d="M67.969 92.608c0.838 1.049 1.907 1.902 3.129 2.492l3.9-8.099L67.969 92.608z" fill="#f09330" stroke-width="none" opacity="1"></path><path id="SvgjsPath13089" d="M75.001 95.999c1.399 0 2.719-0.329 3.899-0.898l-3.9-8.1L75.001 95.999z" fill="#64398e" stroke-width="none" opacity="1"></path><path id="SvgjsPath13090" d="M75 87l7.032 5.607c0.83-1.039 1.432-2.265 1.736-3.606L75 87z" fill="#393b97" stroke-width="none" opacity="1"></path><path id="SvgjsPath13091" d="M75 86.999l2.738-0.625 6.03-1.376c-0.305-1.341-0.906-2.567-1.736-3.606L75 86.999z" fill="#00aa4f" stroke-width="none" opacity="1"></path><path id="SvgjsPath13092" d="M78.9 78.897c-1.182-0.57-2.501-0.898-3.9-0.898v8.998L78.9 78.897z" fill="#fae636" stroke-width="none" opacity="1"></path><path id="SvgjsPath13093" d="M71.098 78.898c-1.222 0.59-2.291 1.442-3.13 2.492l7.03 5.607L71.098 78.898z" fill="#9c2d91" stroke-width="none" opacity="1"></path><path id="SvgjsPath13094" d="M75 86.999L83.769 89C83.915 88.356 84 87.688 84 86.999s-0.085-1.357-0.231-2.001l-6.03 1.376L75 86.999z" fill="#ea2e2e" stroke-width="none" opacity="1"></path><path id="SvgjsPath13095" d="M75 86.999L75 86.999 75.001 87l3.9 8.1c1.223-0.59 2.293-1.443 3.131-2.493L75 86.999 75 86.999z" fill="#9b328d" stroke-width="none" opacity="1"></path><path id="SvgjsPath13096" d="M75 87L75 87 75 87 75 87 75 87 75 87 75 87l-3.9 8.1c1.181 0.57 2.501 0.899 3.9 0.899h0.001L75 87 75 87z" fill="#fde92b" stroke-width="none" opacity="1"></path><path id="SvgjsPath13097" d="M74.999 87L74.999 87 74.999 87 74.999 87 74.999 87 74.999 87 74.999 87 74.999 87 74.999 87 74.999 87 74.999 87l-8.768 2.001c0.305 1.341 0.907 2.567 1.737 3.607L74.999 87 74.999 87z" fill="#00aa4f" stroke-width="none" opacity="1"></path><path id="SvgjsPath13098" d="M75 86.998L75 86.998 75 86.998 75 86.998 75 86.998 75 86.998 75 86.998v-8.999c-1.4 0-2.72 0.329-3.901 0.899L75 86.998 75 86.998z" fill="#65378f" stroke-width="none" opacity="1"></path><path id="SvgjsPath13099" d="M75 86.999L75 86.999 75 86.999l7.032-5.608c-0.838-1.05-1.908-1.903-3.131-2.493l-3.9 8.1L75 86.999z" fill="#ec9236" stroke-width="none" opacity="1"></path><path id="SvgjsPath13100" d="M74.999 86.999L74.999 86.999l-7.031-5.608c-0.83 1.04-1.432 2.266-1.736 3.606l6.654 1.519L74.999 86.999z" fill="#393b97" stroke-width="none" opacity="1"></path><path id="SvgjsPath13101" d="M75 77.999c4.971 0 9 4.029 9 9s-4.029 9-9 9 -9-4.029-9-9S70.029 77.999 75 77.999z" fill="#000000" stroke-width="none" opacity="0.3"></path><path id="SvgjsPath13102" d="M78.5 86.999c0 1.933-1.566 3.5-3.5 3.5s-3.5-1.567-3.5-3.5 1.566-3.5 3.5-3.5S78.5 85.066 78.5 86.999z" fill="#000000" stroke-width="none" opacity="1"></path><path id="SvgjsPath13103" d="M71.653 93.108c-0.47 0.469-1.396 0.304-2.069-0.369 -0.674-0.673-0.84-1.601-0.369-2.07 0.469-0.47 1.395-0.304 2.068 0.369C71.956 91.712 72.122 92.639 71.653 93.108z" fill="#ffffff" stroke-width="none" opacity="0.7"></path><path id="SvgjsPath13104" d="M81.809 85.326c-0.702 0.703-2.403 0.142-3.8-1.254 -1.396-1.396-1.957-3.098-1.256-3.8 0.703-0.703 2.405-0.142 3.8 1.254C81.949 82.922 82.512 84.624 81.809 85.326z" fill="#ffffff" stroke-width="none" opacity="0.9"></path></g></g></g><g id="svga-group-eyesfront-left"><path id="SvgjsPath13054" d="M56 88c0 13.808 8.06 24.999 18 24.999S92 101.808 92 88c0-13.809-8.06-25.001-18-25.001S56 74.191 56 88zM60.956 84.178c11.334-7.516 23.563-3.623 26.092 3.5 0.994 2.798 0.327 5.276-1.739 6.934C70.023 100.123 62.391 92.664 60.956 84.178z" fill="#d9b8af" stroke-width="none" opacity="1" stroke="none"></path><path id="SvgjsPath13055" d="M58.286 88.081c0.025 8.284 8.099 14.961 18.043 14.918 9.939-0.047 17.979-6.796 17.957-15.08 -0.025-8.286-8.101-14.963-18.043-14.92C66.3 73.046 58.264 79.795 58.286 88.081zM60.956 84.178c11.334-7.516 23.563-3.623 26.092 3.5 0.994 2.798 0.327 5.276-1.739 6.934C70.023 100.123 62.391 92.664 60.956 84.178z" fill="url(#SvgjsRadialGradient13056)" opacity="1"></path><path id="SvgjsPath13060" d="M60.956 84.178c11.334-7.516 23.563-3.623 26.092 3.5 0.994 2.798 0.327 5.276-1.739 6.934C70.023 100.123 62.391 92.664 60.956 84.178z" fill="url(#SvgjsRadialGradient13061)" opacity="1"></path><path id="SvgjsPath13064" d="M67.99 77.86c6.02-0.57 13.485-1.112 20.077 3.386C79.514 77.213 75.347 77.714 67.99 77.86z" fill="#ab6957" stroke-width="none" opacity="1" stroke="none"></path><path id="SvgjsPath13065" d="M91.581 88.655c-1.807-2.671-3.564-4.351-6.535-6.319 1.776 0.43 3.052 0.963 5.007 1.944 -9.685-6.58-18.436-6.346-25.183-5.36l4.046 0.469 -2.973 0.675c-1.69 0.179-4.387-0.234-5.708-0.369l3.727 1.265c-1.922 0.919-4.02 0.629-6.643 0.475l2.031 1.622C57.485 83.25 55.904 82.72 54 82.067c2.144 3.765 4.103 5.901 7.695 7.897 1.612 2.208 2.915 3.317 5.439 4.805 -0.137 0.221-0.366 0.468-0.778 0.633 1.035-0.03 1.458-0.112 1.822 0 0.855 0.469 1.561 0.759 2.384 1.054 -0.377 0.269-0.646 0.381-1.173 0.474 1.02-0.094 1.959-0.311 2.554-0.158 2.582 0.303 4.583 0.346 7.408-0.211 1.183-0.263 2.188 0.03 3.111-0.053 -0.473-0.116-1.036-0.276-1.265-0.316l4.11-1.738C70.023 99.83 62.391 92.556 60.956 84.28c11.334-7.33 23.563-3.533 26.092 3.414 0.07-1.258-0.429-2.536-1.792-3.678C87.487 85.082 89.774 86.723 91.581 88.655z" fill="#1b1929" stroke-width="none" opacity="1" stroke="none"></path></g></g><g id="svga-group-eyes-right" ><g id="svga-group-eyesback-right"><path id="SvgjsPath13037" d="M139.044 84.178c-11.334-7.516-23.563-3.623-26.092 3.5 -0.994 2.798-0.327 5.276 1.739 6.934C129.977 100.123 137.609 92.664 139.044 84.178z" fill="url(#SvgjsRadialGradient13038)" opacity="1"></path></g><g id="svga-group-eyesiriswrapper-right" transform="translate(0.5 1.5)"><g id="svga-group-eyesiriscontrol-right" ><g id="svga-group-eyesiris-right" ><path id="SvgjsPath13105" d="M122.886 86.517l-6.655-1.519c-0.146 0.645-0.23 1.313-0.23 2.001 0 0.689 0.085 1.357 0.231 2.001l8.768-2.001L122.886 86.517z" fill="#ea2e2e" stroke-width="none" opacity="1"></path><path id="SvgjsPath13106" d="M117.969 92.608c0.838 1.049 1.907 1.902 3.129 2.492l3.9-8.099L117.969 92.608z" fill="#f09330" stroke-width="none" opacity="1"></path><path id="SvgjsPath13107" d="M125.001 95.999c1.399 0 2.719-0.329 3.899-0.898l-3.9-8.1L125.001 95.999z" fill="#64398e" stroke-width="none" opacity="1"></path><path id="SvgjsPath13108" d="M125 87l7.032 5.607c0.83-1.039 1.432-2.265 1.736-3.606L125 87z" fill="#393b97" stroke-width="none" opacity="1"></path><path id="SvgjsPath13109" d="M125 86.999l2.738-0.625 6.03-1.376c-0.305-1.341-0.906-2.567-1.736-3.606L125 86.999z" fill="#00aa4f" stroke-width="none" opacity="1"></path><path id="SvgjsPath13110" d="M128.9 78.897c-1.182-0.57-2.501-0.898-3.9-0.898v8.998L128.9 78.897z" fill="#fae636" stroke-width="none" opacity="1"></path><path id="SvgjsPath13111" d="M121.098 78.898c-1.222 0.59-2.291 1.442-3.13 2.492l7.03 5.607L121.098 78.898z" fill="#9c2d91" stroke-width="none" opacity="1"></path><path id="SvgjsPath13112" d="M125 86.999L133.769 89c0.146-0.645 0.231-1.313 0.231-2.001s-0.085-1.357-0.231-2.001l-6.03 1.376L125 86.999z" fill="#ea2e2e" stroke-width="none" opacity="1"></path><path id="SvgjsPath13113" d="M125 86.999L125 86.999 125.001 87l3.9 8.1c1.223-0.59 2.293-1.443 3.131-2.493L125 86.999 125 86.999z" fill="#9b328d" stroke-width="none" opacity="1"></path><path id="SvgjsPath13114" d="M125 87L125 87 125 87 125 87 125 87 125 87 125 87l-3.9 8.1c1.181 0.57 2.501 0.899 3.9 0.899h0.001L125 87 125 87z" fill="#fde92b" stroke-width="none" opacity="1"></path><path id="SvgjsPath13115" d="M124.999 87L124.999 87 124.999 87 124.999 87 124.999 87 124.999 87 124.999 87 124.999 87 124.999 87 124.999 87 124.999 87l-8.768 2.001c0.305 1.341 0.907 2.567 1.737 3.607L124.999 87 124.999 87z" fill="#00aa4f" stroke-width="none" opacity="1"></path><path id="SvgjsPath13116" d="M125 86.998L125 86.998 125 86.998 125 86.998 125 86.998 125 86.998 125 86.998v-8.999c-1.4 0-2.72 0.329-3.901 0.899L125 86.998 125 86.998z" fill="#65378f" stroke-width="none" opacity="1"></path><path id="SvgjsPath13117" d="M125 86.999L125 86.999 125 86.999l7.032-5.608c-0.838-1.05-1.908-1.903-3.131-2.493l-3.9 8.1L125 86.999z" fill="#ec9236" stroke-width="none" opacity="1"></path><path id="SvgjsPath13118" d="M124.999 86.999L124.999 86.999l-7.031-5.608c-0.83 1.04-1.432 2.266-1.736 3.606l6.654 1.519L124.999 86.999z" fill="#393b97" stroke-width="none" opacity="1"></path><path id="SvgjsPath13119" d="M125 77.999c4.971 0 9 4.029 9 9s-4.029 9-9 9 -9-4.029-9-9S120.029 77.999 125 77.999z" fill="#000000" stroke-width="none" opacity="0.3"></path><path id="SvgjsPath13120" d="M128.5 86.999c0 1.933-1.566 3.5-3.5 3.5s-3.5-1.567-3.5-3.5 1.566-3.5 3.5-3.5S128.5 85.066 128.5 86.999z" fill="#000000" stroke-width="none" opacity="1"></path><path id="SvgjsPath13121" d="M121.653 93.108c-0.47 0.469-1.396 0.304-2.069-0.369 -0.674-0.673-0.84-1.601-0.369-2.07 0.469-0.47 1.395-0.304 2.068 0.369C121.956 91.712 122.122 92.639 121.653 93.108z" fill="#ffffff" stroke-width="none" opacity="0.7"></path><path id="SvgjsPath13122" d="M131.809 85.326c-0.702 0.703-2.403 0.142-3.8-1.254 -1.396-1.396-1.957-3.098-1.256-3.8 0.703-0.703 2.405-0.142 3.8 1.254C131.949 82.922 132.512 84.624 131.809 85.326z" fill="#ffffff" stroke-width="none" opacity="0.9"></path></g></g></g><g id="svga-group-eyesfront-right"><path id="SvgjsPath13075" d="M126 62.999c-9.94 0-18 11.193-18 25.001 0 13.808 8.06 24.999 18 24.999S144 101.808 144 88C144 74.191 135.94 62.999 126 62.999zM114.691 94.612c-2.066-1.658-2.733-4.135-1.739-6.934 2.528-7.123 14.758-11.016 26.092-3.5C137.609 92.664 129.977 100.123 114.691 94.612z" fill="#d9b8af" stroke-width="none" opacity="1" stroke="none"></path><path id="SvgjsPath13076" d="M123.757 72.999c-9.942-0.043-18.018 6.635-18.043 14.92 -0.022 8.284 8.018 15.032 17.957 15.08 9.944 0.043 18.018-6.635 18.043-14.918C141.736 79.795 133.7 73.046 123.757 72.999zM114.691 94.612c-2.066-1.658-2.733-4.135-1.739-6.934 2.528-7.123 14.758-11.016 26.092-3.5C137.609 92.664 129.977 100.123 114.691 94.612z" fill="url(#SvgjsRadialGradient13077)" opacity="1"></path><path id="SvgjsPath13081" d="M139.044 84.178c-11.334-7.516-23.563-3.623-26.092 3.5 -0.994 2.798-0.327 5.276 1.739 6.934C129.977 100.123 137.609 92.664 139.044 84.178z" fill="url(#SvgjsRadialGradient13082)" opacity="1"></path><path id="SvgjsPath13085" d="M111.933 81.247c6.592-4.498 14.058-3.956 20.077-3.386C124.653 77.714 120.486 77.213 111.933 81.247z" fill="#ab6957" stroke-width="none" opacity="1" stroke="none"></path><path id="SvgjsPath13086" d="M108.419 88.655c1.807-2.671 3.564-4.351 6.535-6.319 -1.776 0.43-3.052 0.963-5.007 1.944 9.685-6.58 18.436-6.346 25.183-5.36l-4.046 0.469 2.973 0.675c1.69 0.179 4.387-0.234 5.708-0.369l-3.727 1.265c1.922 0.919 4.02 0.629 6.643 0.475l-2.031 1.622c1.865 0.194 3.446-0.335 5.351-0.989 -2.144 3.765-4.103 5.901-7.695 7.897 -1.612 2.208-2.915 3.317-5.439 4.805 0.137 0.221 0.366 0.468 0.778 0.633 -1.035-0.03-1.458-0.112-1.822 0 -0.855 0.469-1.561 0.759-2.384 1.054 0.377 0.269 0.646 0.381 1.173 0.474 -1.02-0.094-1.959-0.311-2.554-0.158 -2.582 0.303-4.583 0.346-7.408-0.211 -1.183-0.263-2.188 0.03-3.111-0.053 0.473-0.116 1.036-0.276 1.265-0.316l-4.11-1.738c15.285 5.374 22.918-1.899 24.353-10.175 -11.334-7.33-23.563-3.533-26.092 3.414 -0.07-1.258 0.429-2.536 1.792-3.678C112.513 85.082 110.226 86.723 108.419 88.655z" fill="#1b1929" stroke-width="none" opacity="1" stroke="none"></path></g></g><g id="svga-group-facehighlight-single" ><path id="SvgjsPath12839" d="M140.204 113.007c0.035 22.275-17.995 40.365-40.273 40.396 -22.274 0.036-40.361-17.993-40.396-40.272C59.501 90.857 77.53 72.77 99.808 72.735 122.083 72.701 140.171 90.73 140.204 113.007z" fill="url(#SvgjsRadialGradient12840)" opacity="1"></path><path id="SvgjsPath12843" d="M135,55.999c0,19.329-15.671,35-35,35c-19.329,0-35-15.671-35-35s15.671-35,35-35C119.329,20.999,135,36.67,135,55.999z" fill="url(#SvgjsRadialGradient12844)" opacity="1"></path></g><g id="svga-group-eyebrows-left" ><path id="SvgjsPath13123" d="M52.004 78c27.284-21.604 46.019-2.98 38.919-3.268C89.81 74.701 77.501 64.043 52.004 78z" fill="#2a232b" stroke-width="none" opacity="1"></path></g><g id="svga-group-eyebrows-right" ><path id="SvgjsPath13124" d="M147.996 78c-8.301-6.572-16.838-10.828-27.652-10.275 -13.949 0.957-14.771 9.377-9.785 6.334 2.781-1.698 6.721-2.98 10.842-3.132C130.288 70.405 139.611 73.413 147.996 78z" fill="#2a232b" stroke-width="none" opacity="1"></path></g><g id="svga-group-nose-single" ><path id="SvgjsPath13127" d="M94.803 91.719c0 0 0.661 2.089 0.679 2.718 0.032 1.07-0.102 1.907-0.191 2.729 -0.579 5.369-3.579 13.137-3.418 16.845 0.07 1.597 1.125 3.926 1.125 3.926s-2.537-0.654-3.094-5.178c-0.23-1.866 1.717-5.479 2.397-7.23 0.646-1.664 1.906-7.059 2.348-8.798 0.186-0.729 0.52-1.607 0.515-2.362C95.162 93.697 94.803 91.719 94.803 91.719zM94.514 118.386c0 0 0.3 2.483 3.237 3.092 2.758 0.57 4.305-2.242 4.305-2.242s-2.292 1.442-4.052 0.925C97.075 119.889 94.514 118.386 94.514 118.386zM105.082 113.04c-0.02 0.595-0.198 2.316-0.198 2.316s0.904-1.384 0.962-1.93c0.104-0.98-1.063-3.808-1.063-3.808S105.109 112.176 105.082 113.04z" fill="#ca9b8e" stroke-width="none" opacity="1" stroke="none"></path><path id="SvgjsPath13128" d="M92.489 108.932c-1.224 3.882-2.089 7.991 1.481 9.82 0.467 0.239 0.967 0.416 1.475 0.517 0.276 0.054 0.479 0.288 0.722 0.441 0.557 0.357 1.475 0.408 2.113 0.518 2.454 0.424 4.93-0.568 5.538-2.942 -1.527 2.045-2.878 2.609-4.955 2.446 -2.493-0.196-4.573-2.28-5.227-4.726 -0.389-1.454-0.54-2.916-0.424-4.433 0.108-1.302 0.487-2.593 0.707-3.883 0.412-2.326 1.408-7.191 1.401-9.62 -0.398 1.693-1.119 5.687-1.392 6.661 -0.204 0.726-0.635 2.199-0.811 2.933C92.978 107.253 92.667 108.364 92.489 108.932zM92.207 115.405c-0.163-1.144 0.045-2.348 0.294-3.457 0.088 2.204 0.708 4.771 2.122 6.399C93.401 117.86 92.414 116.852 92.207 115.405 92.061 114.382 92.458 117.163 92.207 115.405z" fill="#ab6957" stroke-width="none" opacity="1" stroke="none"></path><path id="SvgjsPath13129" d="M95.57 113.331c0.158 0.712 0.032 1.354-0.281 1.438 -0.313 0.082-0.634-0.351-0.792-1.063 -0.158-0.711-0.09-1.432 0.222-1.513C95.032 112.11 95.413 112.62 95.57 113.331z" fill="#f8f8f8" stroke-width="none" opacity="1" stroke="none"></path></g><g id="svga-group-hair-front" ><path id="SvgjsPath13008" d="M38.854 237.82l9.88-202.719 105.496 1.162 1.025 203.314C155.255 239.577 50.052 239.114 38.854 237.82zM137.106 235.279c-4.241-47.633 1.152-84.777 5.499-114.713 2.44-16.806 4.572-31.486 4.458-44.428 -2.542 1.415-21.941 1.903-21.941 1.903 -14.513 2.338-25.333 0.387-25.782 0.438 -1.982-12.335-2.297-14.256-2.726-17.048 -1.333 11.235-0.355 13.67-1.37 15.249 -2.873 0.713-22.804-0.167-23.806-0.237 -5.478 2.035-9.035-2.194-12.427-1.241 -1.982 1.505-5.386 1.669-6.386 1.42 -1.023 20.123 2.42 35.283 6.058 51.303 9 39.633 8.399 50.872 5.508 104.881C64.192 232.806 126.452 234.934 137.106 235.279z" fill="#2a232b" stroke-width="none" opacity="0.1"></path><path id="SvgjsPath13009" d="M177.393 209.541c-15.107-60.344 3.552-108.071-9.179-151.026 -6.063-20.427-18.396-46.964-42.724-57.386 -6.483-2.787-12.601-3.207-19.46-2.256 -3.871-1.177-8.064-1.773-12.462-1.773 -30.232 0-49.746 25.833-59.244 54.789 -5.943 18.135-7.341 33.902-5.755 64.884 3.633 70.935-3.103 88.369-14.274 117.075 17.224 0.024 36.536 4.694 63.515 4.779 22.28 0.08 102.989 0.006 109.574-0.733C180.977 223.385 179.949 219.769 177.393 209.541zM139.306 237.354c-44.235-1.525-58.379 0.504-77.335-0.458 3.085-57.769 3.929-68.17-5.236-108.528 -3.815-16.8-7.374-32.516-5.986-53.916 1.84-0.071 3.204 0.365 4.861 1.224v0.005c0.079 0.043 0.154 0.086 0.23 0.131 0.05-0.268 0.105-0.577 0.162-0.836l0.118-0.089 -0.098-0.02c0.638-3.158 1.735-6.719 3.175-10.297l0.191 0.054c-0.49 2.876-0.772 5.765-0.838 8.586l-0.03 0.053c3.296-0.917 7.163 1.845 10.161 1.845 0.87-0.06 1.588-0.369 2.394-0.662 1.102-15.937 2.326-22.387 4.625-27.361l0.188 0.063c-1.329 6.207-1.753 14.946-1.297 26.715l-0.012 0.016c2.685-0.26 5.862 0.912 8.171 0.815 0-3.915 0.676-9.192 0.94-12.385l0.199 0.002c0.403 6.263 1.163 10.374 1.782 13.256 5.281-1.185 5.041-0.413 7.762-0.57 0.189-0.009 0.377-0.028 0.556-0.064l0.03-0.046 -0.1 0.008c-0.677-8.054 2.333-25.156 3.102-29.187l0.198 0.019c-0.008 7.96 0.718 11.325 3.793 30.548 1.722-0.197 4.705 0.844 6.717 1.081 0-3.986-0.013-3.709 0.01-5.85l0.199 0c0.033 2.019 0.142 3.989 0.735 5.933 3.159 0.066 5.395-1.403 8.343-1.122 0.369-16.421-1.055-25.078-1.897-32.829l0.196-0.037c4.08 15.22 5.452 31.663 5.565 33.095 0.38-0.028 1.758-0.133 2.461-0.246 0.431-3.141 2.143-21.364 1.309-26.247l0.194-0.046c2.643 8.591 2.331 15.253 2.524 25.565 2.552-0.785 6.706 0.343 9.615 0.015 -0.4-7.699-0.557-14.668-2.451-21.243l0.189-0.063c2.292 5.971 4.105 13.197 4.986 20.951l0.045-0.025c6.444 0.5 5.332-0.919 9.239-2.14C150.379 109.934 131.943 159.713 139.306 237.354z" fill="#2a232b" stroke-width="none" opacity="1"></path><path id="SvgjsPath13010" d="M180.326 238.184c-13.273 0.212-38.624-0.278-41.021-0.829 -2.923-30.82-1.775-57.236 0.579-80.211 3.563-34.778 9.895-61.65 9.112-83.836 0.153-1.482 2.837-0.396 3.497-1.095 -4.5-29.25-14.214-47.686-29.494-59.91 64.384 45.135 14.583 132.535 23.191 167.176 1.473-18.377 13.012-69.387 15.809-79.376 -5 36-17 78 3 112 -2.631-14.907-2.954-30.583-2.994-45.681C162.776 191.536 172.246 214.616 180.326 238.184zM58.674 65.947c0.174-0.459 0.336-0.917 0.522-1.377l0.191 0.054c-0.49 2.876-0.772 5.765-0.838 8.586l-0.03 0.053c0.829-0.23 1.694-0.228 2.572-0.096 0.46-12.512 2.842-25.349 9.909-35.065C62.39 45.146 60.52 55.867 58.674 65.947zM101 31.102c-4.32 7.921-5.012 16.878-5.807 25.753 0.705-4.999 1.486-9.358 1.828-11.146l0.198 0.019c-0.008 7.96 0.718 11.325 3.793 30.548 0.581-0.066 1.31 0.014 2.092 0.15C99.585 61.645 97.306 46.8 101 31.102zM107.107 77.255c0.21 0.036 0.428 0.078 0.622 0.101 0-3.986-0.013-3.709 0.01-5.85l0.199 0c0.033 2.019 0.142 3.989 0.735 5.933 0.322 0.007 0.628-0.012 0.933-0.033C109.008 70.885 109 64.846 109 58.102 107.081 64.817 107.919 70.614 107.107 77.255zM116.672 76.305c0.116 0.006 0.227 0 0.345 0.012 0.369-16.421-1.055-25.078-1.897-32.829l0.196-0.037c4.08 15.22 5.452 31.663 5.565 33.095 0.274-0.02 1.071-0.081 1.757-0.156 -1.144-16.075-3.59-31.982-11.638-46.289C114.768 45.173 114.988 61.131 116.672 76.305zM135.979 75.646c0.347-0.006 0.685-0.021 1.005-0.058 -0.4-7.699-0.557-14.668-2.451-21.243l0.189-0.063c2.292 5.971 4.105 13.197 4.986 20.951l0.045-0.025c0.782 0.061 1.449 0.092 2.031 0.1 -1.098-13.198-6.537-25.602-12.785-37.206C132.851 50.616 135.767 63.131 135.979 75.646zM124.84 56.501c0.076-2.761 0.039-5.108-0.189-6.448l0.194-0.046c2.643 8.591 2.331 15.253 2.524 25.565 0.555-0.17 1.193-0.239 1.87-0.264 0.08-12.715-1.994-25.322-6.239-37.208C123.654 43.994 124.731 50.313 124.84 56.501zM86 50.102c-3.781 7.562-3.098 16.018-4.701 24.521 0.509 0.058 0.997 0.089 1.45 0.07 0-3.915 0.676-9.192 0.94-12.385l0.199 0.002c0.403 6.263 1.163 10.374 1.782 13.256 0.642-0.144 1.2-0.258 1.694-0.35C85.62 67.168 84.213 59.034 86 50.102zM79 40.102c-8.426 9.362-8.087 23.107-8.83 34.67 0.297-0.103 0.594-0.213 0.904-0.326 1.102-15.937 2.326-22.387 4.625-27.361l0.188 0.063c-1.329 6.207-1.753 14.946-1.297 26.715l-0.012 0.016c0.748-0.072 1.534-0.029 2.329 0.063C76.446 62.338 74.534 50.821 79 40.102zM81 17.102c-25.15 16.485-39 47-35 75 5 37 11 73 6 110 3-31-2-62-8-93 5 34 5 68-4 101 3.177-16.681 0.047-32.73-1.376-49.151 0.141 25.13-5.941 50.009-14.846 73.181 16.549 0.846 36.42 3.267 38.192 2.766 3.085-57.769 3.929-68.17-5.236-108.528 -3.815-16.8-7.374-32.516-5.986-53.916C50.748 74.453 52.907 45.195 81 17.102z" fill="#1b141c" stroke-width="none" opacity="1"></path><path id="SvgjsPath13011" d="M64.672 42.118C74.59 24.24 80.38 19.473 94.632 11.415c0.176-0.104-0.702 0.439-2.147 1.33C78.576 21.306 72.058 29.883 64.672 42.118zM135.742 37.113c9.163 18.181 9.775 30.657 9.025 24.705 -0.8-4.99-1.419-10.855-6.312-22.197 -5.369-11.776-14.072-23.532-25.283-30.441C119.437 13.431 126.959 20.108 135.742 37.113zM91.527 43.736c-1.861 13.125-1.499 23.37-1.487 22.57 0.06-9.996 2.285-23.7 4.771-33.506 2.673-9.599 5.599-14.82 6.494-16.746C97.408 23.369 93.199 32.769 91.527 43.736zM111.445 59.291c0.067 1.53 0.117 2.458 0.109 2.274 -0.562-6.037 1.766-16.643-5.494-38.71C109.065 33.412 110.842 42.398 111.445 59.291zM130.265 63.92c0.329 2.116 0.547 3.4 0.509 3.145 -1.188-7.196-0.94-20.108-7.805-34.964 -4.252-9.161-8.862-13.611-10.668-15.707C119.052 24.654 125.487 33.128 130.265 63.92zM79.303 60.814c0.534-8.417 1.123-9.623 1.675-12.166 3.557-14.121 5.869-18.655 10.179-25.844C78.031 42.895 79.303 60.814 79.303 60.814zM37.505 63.373c-0.024 0.471-0.016 2.812-0.008 2.419C38.081 45.747 61.782 11.076 77.827 5.21 62.315 10.191 39.336 38.968 37.505 63.373zM38.188 103.349c0.687 5.613 1.616 9.97 1.536 9.472 -3.8-17.919 1.102-58.568 12.54-73.07C43.945 49.745 35.375 75.813 38.188 103.349zM34.257 158.321c-0.697 3.996-0.614 3.458-0.165 1.388 3.824-18.365 0.212-50.656-1.332-66.366C32.761 92.337 35.675 142.412 34.257 158.321zM145.164 23.022c2.272 3.198 7.384 9.497 12.905 23.33 4.216 10.549-1.739-5.479-3.84-10.089 -7.777-18.021-18.42-26.645-36.157-33.313C133.49 9.586 138.051 14.323 145.164 23.022zM160.349 100.734c-1.174 11.388 1.192-7.638 1.439-10.115 2.257-19.967-1.41-33.458-8.753-46.237C159.271 56.404 163.33 68.177 160.349 100.734zM166.605 172.471c0.702 3.44 1.178 5.512 1.091 5.1 -4.749-24.438-0.502-87.206-0.472-89.487C166.943 94.275 160.133 142.839 166.605 172.471z" fill="#3a353a" stroke-width="none" opacity="1"></path><path id="SvgjsPath13012" d="M177.489 209.517c-15.15-60.52 3.6-107.91-9.18-151.03 -7.061-23.79-20.16-47.76-42.78-57.45 -6.84-2.94-13.17-3.16-19.47-2.26 -7.271-2.21-16.46-2.55-25.811 0.07 -24.32 6.79-38.6 30.39-46.02 53.01 -5.61 17.12-7.43 32.3-5.76 64.92 3.57 69.692-2.795 87.556-14.32 117.17 17.259 0 36.599 4.694 63.66 4.779 22.157 0.084 104.198 0.003 109.72-0.75C181.142 223.517 180.077 219.868 177.489 209.517zM127.009 236.896c-28.229-0.85-46.33 0.71-64.63-0.079 -0.101-0.005-0.202-0.013-0.303-0.017 0.586-10.989 1.823-25.713 2.103-51.044 0.452-48.899-16.046-69.102-13.336-111.208 0.227-0.008 0.457-0.022 0.677-0.012 0.25 0.01 0.49 0.04 0.72 0.08 1.22 0.17 2.3 0.61 3.27 1.12 0 0.03 0 0.06-0.01 0.08 0.02-0.02 0.03-0.04 0.04-0.06 0.13 0.07 0.25 0.14 0.38 0.22 0-0.05 0.01-0.1 0.02-0.15 0.05-0.27 0.1-0.55 0.16-0.83 0-0.04 0.01-0.07 0.02-0.11 0.66-3.27 1.79-6.85 3.17-10.28 -0.54 3.17-0.78 6.05-0.84 8.6 0 0.06-0.01 0.12 0 0.18 0.24-0.07 0.48-0.13 0.72-0.16 3.13-0.44 6.75 2.02 9.58 1.98 0.67-0.05 1.31-0.28 1.95-0.51 0.16-0.07 0.31-0.12 0.47-0.18 0.31-4.51 0.82-9.25 1.05-11.59 0.53-5.39 1.31-10.91 3.57-15.8 -1.09 5.09-1.83 13.05-1.3 26.74 0 0.04 0.01 0.08 0.01 0.12 0.2-0.02 0.41-0.04 0.62-0.04 0.82-0.03 1.67 0.06 2.52 0.19 0.1 0.01 0.2 0.03 0.29 0.04 1.53 0.25 3.07 0.6 4.57 0.62 0.12 0 0.23 0 0.35-0.01 0-0.04 0-0.07 0-0.11 0.01-2.05 0.18-4.74 0.59-8.73 0.14-1.21 0.25-2.42 0.35-3.63 0.39 6.06 1.1 10.09 1.79 13.3 0 0.02 0.01 0.05 0.01 0.07 0.14-0.03 0.27-0.06 0.39-0.09 1.93-0.49 2.02-0.59 4.55-0.58 1.16 0 2.06 0.13 2.91 0.08 0.2-0.01 0.4-0.03 0.59-0.07 0-0.05-0.01-0.1-0.01-0.14 -0.17-2.02-0.24-3.89-0.18-5.14 0.14-3.1 1.56-15 3.28-24.02 -0.01 9.93 1.6 15.67 2.9 24.94 0.26 1.86 0.52 3.71 0.88 5.53 0.01 0.06 0.02 0.12 0.029 0.19 0.131-0.02 0.271-0.03 0.41-0.03 1.84-0.03 4 0.75 6.11 1.06 0.13 0.02 0.26 0.04 0.38 0.05 0-0.15 0-0.29 0-0.43 0-1.05 0-1.88 0-2.24 -0.01-1.27 0-2.36 0.01-3.29 0.04 2.49 0.19 3.89 0.63 5.58 0.04 0.14 0.08 0.29 0.131 0.45 0.159 0 0.319 0.01 0.47 0.01 0.149-0.01 0.29-0.01 0.43-0.02 1.79-0.11 3.5-0.72 5.26-1.02 0.62-0.11 1.2-0.15 1.75-0.12 0.2 0 0.4 0.02 0.601 0.04 0.01-0.08 0.01-0.17 0-0.25 0.029-1.56 0.029-3.4 0.01-5.6 -0.13-14.33-0.6-15.11-1.9-27.1 4.295 16.023 5.57 33.176 5.57 33.176s1.846-0.128 2.642-0.266c0.438-3.102 2.152-21.467 1.318-26.35 2.63 8.55 2.33 15.2 2.521 25.58 0.01 0.03 0.01 0.06 0.01 0.09 0.18-0.06 0.359-0.11 0.54-0.14 2.67-0.55 5.96 0.38 9 0.14 0.09-0.01 0.18-0.02 0.27-0.03 0-0.03-0.01-0.06-0.01-0.1 -0.4-8.32-0.64-14.98-2.45-21.26 2.181 5.68 4.08 13 4.95 20.66 0 0.02 0.01 0.04 0.01 0.07 0 0.05 0.011 0.1 0.011 0.15 0.01 0.03 0.01 0.06 0.02 0.1 0.08 0.01 0.16 0.01 0.25 0.02 1.23 0.11 2.47 0.19 3.65 0.05 1.994-0.247 3.513-1.582 5.379-2.165 0.667 15.533-3.643 42.797-5.319 54.003 -0.839 5.757-1.671 11.249-2.304 16.2 -4.776 36.774-4.247 71.054-2.08 93.846C135.446 237.146 131.398 237.029 127.009 236.896zM161.339 237.787c-1.8-7.09-3.66-14.75-4.26-17.54 -4.78-22.08-6.68-57.7-2.35-79.69 -4.511 19.601-5.551 53.73 1.359 80.94 0.95 3.74 2.66 9.79 4.641 16.28 -5.631-0.109-12.501-0.275-20.942-0.51 -0.994-13.384-1.845-33.824-0.302-56.421 2.255-36.467 10.913-86.177 9.76-107.737 0.274-0.075 0.549-0.15 0.834-0.203 0.24-0.05 0.48-0.09 0.72-0.13 0.96-0.15 1.94-0.25 2.9-0.38 0.12-0.02 0.25-0.04 0.37-0.06 -0.021-0.09-0.03-0.18-0.03-0.28 -0.74-6.93-2.86-22.16-9.47-35.44 -1.13-2.28-2.32-4.61-3.88-6.63 -3.04-3.91-13.34-16.09-17.87-17.71 5.41 2.95 13.46 13.25 17.09 18.32 3.9 5.53 11.52 24.85 13.56 40.08 0.061 0.47 0.131 0.95 0.19 1.42 -0.97 0.08-1.96 0.1-2.93 0.23 -0.24 0.03-0.471 0.06-0.7 0.11 -0.42 0.08-0.83 0.18-1.23 0.32 -1.93 0.68-3.449 2.17-5.54 2.4 -1.109 0.13-2.26 0.1-3.399 0.05 0-0.09-0.01-0.18-0.021-0.27 0.011-0.01 0.03-0.01 0.04-0.02 -0.01 0-0.029 0-0.04 0.01 -0.279-4.54-0.79-8.8-1.95-13.38 -0.579-2.27-2.67-7.84-5.1-12.25 -0.4-0.72-0.8-1.4-1.21-2.04 0.3 0.67 0.59 1.35 0.85 2.05 2.421 6.29 3.271 14.06 4.381 26.28 -2.79 0.02-6.21-0.83-8.98-0.13 0.23-8.92 0.4-16.72-3.11-26.27 -0.09-0.27-0.189-0.53-0.29-0.8 0 0.22 0 0.43 0 0.65 0.018 10.723-0.445 18.599-1.341 27.3 -0.002 0-1.868 0.208-1.868 0.208 -0.281-6.221-0.846-14.428-1.7-19.028 -1.32-7.09-2.931-12.55-4.62-17.04 -0.29-0.8-0.58-1.55-0.88-2.28 0.02 0.47 0.05 0.94 0.08 1.41 0.02 0.3 0.039 0.59 0.06 0.89 1.37 19.23 2.05 29.71 2.33 35.64 -0.43-0.02-0.91-0.01-1.45 0.05 -1.93 0.2-3.81 0.71-5.75 0.89 -0.1 0.01-0.2 0.02-0.31 0.01 -0.641-3.39-0.811-6.35-0.92-9.67 -0.011-0.01-0.011-0.03 0-0.04 -0.011-0.19-0.021-0.37-0.021-0.56 -0.08 0.39-0.15 0.79-0.21 1.18 -0.36 2.21-0.51 4.46-0.47 6.73 0.01 0.39 0.04 1.22 0.08 2.26 -1.971-0.27-4.221-1-6.13-0.84 -0.41-2.81-0.541-5.15-0.601-5.79 -0.5-5.21-2.49-17.76-2.67-28.99 -0.01-0.83-0.01-1.65 0-2.46 -0.03 0.08-0.06 0.17-0.09 0.26 -0.24 0.73-0.49 1.52-0.73 2.38 -2.43 8.47-4.82 22.83-3.8 33.37 -1.58 0.02-2.19-0.74-7.46 0.6 -0.66-4.44-1.37-9.72-1.83-16.91 -0.05-0.68-0.09-1.39-0.12-2.11 -0.13 0.69-0.27 1.39-0.4 2.12 -0.85 4.72-1.57 10.17-1.12 16.04 -1.97-0.09-3.37-0.38-4.54-0.6 -0.09-0.02-0.19-0.04-0.28-0.06 -0.91-0.17-1.7-0.29-2.55-0.22 0.04-9.19 0.5-23.44 1.29-27.48 0.05-0.24 0.1-0.48 0.15-0.72 0.04-0.19 0.08-0.38 0.13-0.57 -0.24 0.37-0.46 0.73-0.67 1.11 0 0 0 0 0 0.01 -2.87 5.07-4 11.09-4.68 16.86 -0.26 2.15-0.57 6.99-0.64 11.66 -0.66 0.18-1.32 0.34-1.98 0.36 -2.37 0.18-5.19-2.63-9.53-1.96 0.26-2.61 0.69-5.89 1.39-10.11 0.13-0.77 0.27-1.54 0.43-2.3 0.12-0.56 0.24-1.12 0.37-1.68 1.53-6.51 4.05-12.69 7.29-18.56 -4.84 7.94-7.48 15.26-8.86 21.6 -2.1 4.37-3.69 9.15-4.28 13.58 -0.96-0.58-2.05-1.07-3.28-1.24 -0.23-0.05-0.46-0.07-0.7-0.07 -0.67-0.05-1.38 0.01-2.14 0.2 1.06-5.01 2.81-10.72 4.72-16.16 0.05-0.14 0.1-0.27 0.14-0.41 2.31-6.51 4.81-12.58 6.62-16.49 4.05-8.76 9.38-13.92 17.64-22.9 -7.84 7.83-14.29 13.62-18.31 21.5 -2.34 4.59-4.76 9.25-6.34 14.17 -1.32 4.14-3.99 12.8-5.18 20.49 -0.02 0.08-0.03 0.16-0.04 0.23 0.24-0.08 0.47-0.13 0.7-0.18 0.484-0.101 0.939-0.145 1.384-0.166 -1.706 21.073 1.026 39.395 7.971 68.821 0 0 1.324 6.811 2.002 12.007 2.208 19.151 1.688 29.073 1.495 63.551 0.009 5.47-0.461 11.988-0.714 17.839 -5.923-0.293-11.821-0.83-17.718-1.401 0.91-2.79 1.93-5.59 2.73-8.08 4.77-14.79 7.95-48.95 1.23-86.431 4.23 28.811 3.22 58.641-0.75 81.271 -0.67 3.82-2.34 8.6-3.64 13.2 -6.5-0.63-12.99-1.271-19.51-1.61 -3.19-0.17-6.16-0.24-9.08-0.29 16.37-39.41 18.46-57.8 16.27-124.56 -0.68-20.86-1.4-40.54 8.37-65.61 16.17-41.49 46.03-49.89 65.84-44.35 0.189 0.04 0.38 0.1 0.57 0.15 0.27-0.03 0.54-0.07 0.81-0.1 9.23-1.1 16.92 0.36 26.6 7.13 23.62 16.52 35.21 48.19 36.87 76.97 1.65 28.58-4.13 64.52 0.98 100.85 1.78 12.64 5.04 24.949 8.85 37.12 0.44 1.51 3.83 9.34 6.96 16.529C183.339 237.917 177.659 238.097 161.339 237.787z" fill="#000000" stroke-width="none" opacity="1"></path></g><g id="svga-group-glasses-single" ><path id="SvgjsPath12971" d="M100,18.13L100,18.13L100,18.13L100,18.13z" fill="#26120b" stroke-width="none" opacity="1"></path></g></g></g><rect id="SvgjsRect12824" width="200" height="15" x="0" y="185" fill="#ecf0f1" opacity="0.5" style="display:none;"></rect><text id="SvgjsText12825" font-family="&quot;Roboto&quot;, &quot;Helvetica Neue&quot;, Helvetica, Arial, sans-serif" style="font-size:0.84em;font-family:&quot;Roboto&quot;, &quot;Helvetica Neue&quot;, Helvetica, Arial, sans-serif;text-anchor:middle;font-weight:400;display:none;" font-size="0.84em" text-anchor="middle" font-weight="400" fill="#000000" x="100" y="185"><tspan id="SvgjsTspan12826" dy="1.2em" x="100" style="font-size:0.84em;font-family:&quot;Roboto&quot;, &quot;Helvetica Neue&quot;, Helvetica, Arial, sans-serif;text-anchor:middle;font-weight:400;">creartuavatar.com</tspan></text></g><defs id="SvgjsDefs12792"><radialGradient id="SvgjsRadialGradient12840" cx="100" cy="113" r="40" gradientUnits="userSpaceOnUse" class="svga-on-canvas-facehighlight-gradient-single-0"><stop id="SvgjsStop12841" stop-opacity="0.5" stop-color="#e8d7d3" offset="0" ></stop><stop id="SvgjsStop12842" stop-opacity="0" stop-color="#d9b8af" offset="0.9" ></stop></radialGradient><radialGradient id="SvgjsRadialGradient12844" cx="100" cy="57" r="36" gradientUnits="userSpaceOnUse" class="svga-on-canvas-facehighlight-gradient-single-1"><stop id="SvgjsStop12845" stop-opacity="0.5" stop-color="#e8d7d3" offset="0" ></stop><stop id="SvgjsStop12846" stop-opacity="0" stop-color="#d9b8af" offset="0.9" ></stop></radialGradient><radialGradient id="SvgjsRadialGradient12925" cx="-558.588" cy="-490.918" r="84.646" gradientTransform="matrix(0.096 -0.0248 0.0245 0.0961 140.5478 120.3577)" gradientUnits="userSpaceOnUse" class="svga-on-canvas-eyesiris-gradient-left-1"><stop id="SvgjsStop12926" stop-opacity="0.8" stop-color="#ffffff" offset="0" ></stop><stop id="SvgjsStop12927" stop-opacity="0" stop-color="#ffffff" offset="1" ></stop></radialGradient><radialGradient id="SvgjsRadialGradient12929" cx="-565.337" cy="-492.691" r="84.644" gradientTransform="matrix(0.0991 8.856325e-004 -0.0011 0.0991 130.3774 136.3533)" gradientUnits="userSpaceOnUse" class="svga-on-canvas-eyesiris-gradient-left-2"><stop id="SvgjsStop12930" stop-opacity="0.8" stop-color="#ffffff" offset="0" ></stop><stop id="SvgjsStop12931" stop-opacity="0" stop-color="#ffffff" offset="1" ></stop></radialGradient><linearGradient id="SvgjsLinearGradient12935" x1="122.283" y1="93.047" x2="123.61" y2="91.466" gradientTransform="matrix(1 0 0 1 -52 0)" gradientUnits="userSpaceOnUse" class="svga-on-canvas-eyesiris-gradient-left-5"><stop id="SvgjsStop12936" stop-opacity="1" stop-color="#ffffff" offset="0" ></stop><stop id="SvgjsStop12937" stop-opacity="0" stop-color="#ffffff" offset="1" ></stop></linearGradient><linearGradient id="SvgjsLinearGradient12939" x1="127" y1="85" x2="125" y2="87" gradientTransform="matrix(1 0 0 1 -50 0)" gradientUnits="userSpaceOnUse" class="svga-on-canvas-eyesiris-gradient-left-6"><stop id="SvgjsStop12940" stop-opacity="1" stop-color="#ffffff" offset="0" ></stop><stop id="SvgjsStop12941" stop-opacity="0" stop-color="#ffffff" offset="1" ></stop></linearGradient><linearGradient id="SvgjsLinearGradient12943" x1="130" y1="81" x2="126" y2="85" gradientTransform="matrix(1 0 0 1 -50 0)" gradientUnits="userSpaceOnUse" class="svga-on-canvas-eyesiris-gradient-left-7"><stop id="SvgjsStop12944" stop-opacity="1" stop-color="#ffffff" offset="0" ></stop><stop id="SvgjsStop12945" stop-opacity="0" stop-color="#ffffff" offset="1" ></stop></linearGradient><radialGradient id="SvgjsRadialGradient12948" cx="-578.76" cy="-490.73" r="84.646" gradientTransform="matrix(0.096 -0.0248 0.0245 0.0961 192.4794 119.8404)" gradientUnits="userSpaceOnUse" class="svga-on-canvas-eyesiris-gradient-right-1"><stop id="SvgjsStop12949" stop-opacity="0.8" stop-color="#ffffff" offset="0" ></stop><stop id="SvgjsStop12950" stop-opacity="0" stop-color="#ffffff" offset="1" ></stop></radialGradient><radialGradient id="SvgjsRadialGradient12952" cx="-584.778" cy="-487.329" r="84.644" gradientTransform="matrix(0.0991 8.856325e-004 -0.0011 0.0991 182.3104 135.839)" gradientUnits="userSpaceOnUse" class="svga-on-canvas-eyesiris-gradient-right-2"><stop id="SvgjsStop12953" stop-opacity="0.8" stop-color="#ffffff" offset="0" ></stop><stop id="SvgjsStop12954" stop-opacity="0" stop-color="#ffffff" offset="1" ></stop></radialGradient><linearGradient id="SvgjsLinearGradient12958" x1="120.284" y1="93.047" x2="121.611" y2="91.467" gradientUnits="userSpaceOnUse" class="svga-on-canvas-eyesiris-gradient-right-5"><stop id="SvgjsStop12959" stop-opacity="1" stop-color="#ffffff" offset="0" ></stop><stop id="SvgjsStop12960" stop-opacity="0" stop-color="#ffffff" offset="1" ></stop></linearGradient><linearGradient id="SvgjsLinearGradient12962" x1="127" y1="85" x2="125" y2="87" gradientUnits="userSpaceOnUse" class="svga-on-canvas-eyesiris-gradient-right-6"><stop id="SvgjsStop12963" stop-opacity="1" stop-color="#ffffff" offset="0" ></stop><stop id="SvgjsStop12964" stop-opacity="0" stop-color="#ffffff" offset="1" ></stop></linearGradient><linearGradient id="SvgjsLinearGradient12966" x1="130" y1="81" x2="126" y2="85" gradientUnits="userSpaceOnUse" class="svga-on-canvas-eyesiris-gradient-right-7"><stop id="SvgjsStop12967" stop-opacity="1" stop-color="#ffffff" offset="0" ></stop><stop id="SvgjsStop12968" stop-opacity="0" stop-color="#ffffff" offset="1" ></stop></linearGradient><linearGradient id="SvgjsLinearGradient12974" x1="100" y1="141" x2="100" y2="138" gradientUnits="userSpaceOnUse" class="svga-on-canvas-mouth-gradient-single-0"><stop id="SvgjsStop12975" stop-opacity="1" stop-color="#d1a99e" offset="0.1" ></stop><stop id="SvgjsStop12976" stop-opacity="1" stop-color="#ca9b8e" offset="1" ></stop></linearGradient><radialGradient id="SvgjsRadialGradient13030" cx="126.672" cy="88.669" r="14.058" gradientTransform="matrix(-1.0357 0 0 1.0357 204.6606 -3.2718)" gradientUnits="userSpaceOnUse" class="svga-on-canvas-eyesback-gradient-left-0"><stop id="SvgjsStop13031" stop-opacity="1" stop-color="#ffffff" offset="0" ></stop><stop id="SvgjsStop13032" stop-opacity="1" stop-color="#fdfefe" offset="0.544" ></stop><stop id="SvgjsStop13033" stop-opacity="1" stop-color="#f6f8f9" offset="0.74" ></stop><stop id="SvgjsStop13034" stop-opacity="1" stop-color="#eaeff2" offset="0.879" ></stop><stop id="SvgjsStop13035" stop-opacity="1" stop-color="#d9e3e8" offset="0.992" ></stop><stop id="SvgjsStop13036" stop-opacity="1" stop-color="#d8e2e7" offset="1" ></stop></radialGradient><radialGradient id="SvgjsRadialGradient13038" cx="126.672" cy="88.669" r="14.058" gradientTransform="matrix(1.0357 0 0 1.0357 -4.6606 -3.2718)" gradientUnits="userSpaceOnUse" class="svga-on-canvas-eyesback-gradient-right-0"><stop id="SvgjsStop13039" stop-opacity="1" stop-color="#ffffff" offset="0" ></stop><stop id="SvgjsStop13040" stop-opacity="1" stop-color="#fdfefe" offset="0.544" ></stop><stop id="SvgjsStop13041" stop-opacity="1" stop-color="#f6f8f9" offset="0.74" ></stop><stop id="SvgjsStop13042" stop-opacity="1" stop-color="#eaeff2" offset="0.879" ></stop><stop id="SvgjsStop13043" stop-opacity="1" stop-color="#d9e3e8" offset="0.992" ></stop><stop id="SvgjsStop13044" stop-opacity="1" stop-color="#d8e2e7" offset="1" ></stop></radialGradient><radialGradient id="SvgjsRadialGradient13046" cx="126.672" cy="88.669" r="14.058" gradientTransform="matrix(-1.0357 0 0 1.0357 204.6606 -3.2718)" gradientUnits="userSpaceOnUse" class="svga-on-canvas-eyesfront-gradient-left-0"><stop id="SvgjsStop13047" stop-opacity="1" stop-color="#ffffff" offset="0" ></stop><stop id="SvgjsStop13048" stop-opacity="1" stop-color="#fdfefe" offset="0.544" ></stop><stop id="SvgjsStop13049" stop-opacity="1" stop-color="#f6f8f9" offset="0.74" ></stop><stop id="SvgjsStop13050" stop-opacity="1" stop-color="#eaeff2" offset="0.879" ></stop><stop id="SvgjsStop13051" stop-opacity="1" stop-color="#d9e3e8" offset="0.992" ></stop><stop id="SvgjsStop13052" stop-opacity="1" stop-color="#d8e2e7" offset="1" ></stop></radialGradient><radialGradient id="SvgjsRadialGradient13056" cx="123.623" cy="87.41" fx="136.422" fy="87.446" r="18.203" gradientTransform="matrix(0.9998 0.0208 0.0166 -0.7998 -48.6744 154.7508)" gradientUnits="userSpaceOnUse" class="svga-on-canvas-eyesfront-gradient-left-3"><stop id="SvgjsStop13057" stop-opacity="1" stop-color="#ca9b8e" offset="0" ></stop><stop id="SvgjsStop13058" stop-opacity="0.3" stop-color="#ca9b8e" offset="0.7" ></stop><stop id="SvgjsStop13059" stop-opacity="0" stop-color="#d9b8af" offset="1" ></stop></radialGradient><radialGradient id="SvgjsRadialGradient13061" cx="72.134" cy="102.21" r="22.89" gradientTransform="matrix(0.9878 -0.0515 0.0518 0.9833 -2.5169 7.7255)" gradientUnits="userSpaceOnUse" class="svga-on-canvas-eyesfront-gradient-left-4"><stop id="SvgjsStop13062" stop-opacity="0" stop-color="#000000" offset="0.95" ></stop><stop id="SvgjsStop13063" stop-opacity="0.3" stop-color="#000000" offset="1" ></stop></radialGradient><radialGradient id="SvgjsRadialGradient13067" cx="126.672" cy="88.669" r="14.058" gradientTransform="matrix(1.0357 0 0 1.0357 -4.6606 -3.2718)" gradientUnits="userSpaceOnUse" class="svga-on-canvas-eyesfront-gradient-right-0"><stop id="SvgjsStop13068" stop-opacity="1" stop-color="#ffffff" offset="0" ></stop><stop id="SvgjsStop13069" stop-opacity="1" stop-color="#fdfefe" offset="0.544" ></stop><stop id="SvgjsStop13070" stop-opacity="1" stop-color="#f6f8f9" offset="0.74" ></stop><stop id="SvgjsStop13071" stop-opacity="1" stop-color="#eaeff2" offset="0.879" ></stop><stop id="SvgjsStop13072" stop-opacity="1" stop-color="#d9e3e8" offset="0.992" ></stop><stop id="SvgjsStop13073" stop-opacity="1" stop-color="#d8e2e7" offset="1" ></stop></radialGradient><radialGradient id="SvgjsRadialGradient13077" cx="123.623" cy="87.41" fx="136.422" fy="87.446" r="18.203" gradientTransform="matrix(-0.9998 0.0208 -0.0166 -0.7998 248.6744 154.7508)" gradientUnits="userSpaceOnUse" class="svga-on-canvas-eyesfront-gradient-right-3"><stop id="SvgjsStop13078" stop-opacity="1" stop-color="#ca9b8e" offset="0" ></stop><stop id="SvgjsStop13079" stop-opacity="0.3" stop-color="#ca9b8e" offset="0.7" ></stop><stop id="SvgjsStop13080" stop-opacity="0" stop-color="#d9b8af" offset="1" ></stop></radialGradient><radialGradient id="SvgjsRadialGradient13082" cx="72.134" cy="102.21" r="22.89" gradientTransform="matrix(-0.9878 -0.0515 -0.0518 0.9833 202.5169 7.7255)" gradientUnits="userSpaceOnUse" class="svga-on-canvas-eyesfront-gradient-right-4"><stop id="SvgjsStop13083" stop-opacity="0" stop-color="#000000" offset="0.95" ></stop><stop id="SvgjsStop13084" stop-opacity="0.3" stop-color="#000000" offset="1" ></stop></radialGradient><linearGradient id="SvgjsLinearGradient13146" x1="99.98" y1="171.27" x2="99.98" y2="136.351" gradientUnits="userSpaceOnUse" class="svga-on-canvas-chinshadow-gradient-single-0"><stop id="SvgjsStop13147" stop-opacity="0.8" stop-color="#ca9b8e" offset="0" ></stop><stop id="SvgjsStop13148" stop-opacity="1" stop-color="#ab6957" offset="0.7" ></stop></linearGradient></defs></svg>